<?xml version="1.0" encoding="UTF-8" standalone="no"?>
<!DOCTYPE svg PUBLIC "-//W3C//DTD SVG 1.1//EN" "http://www.w3.org/Graphics/SVG/1.1/DTD/svg11.dtd">
<svg width="100%" height="100%" viewBox="0 0 250 90" version="1.1" xmlns="http://www.w3.org/2000/svg" xmlns:xlink="http://www.w3.org/1999/xlink" xml:space="preserve" xmlns:serif="http://www.serif.com/" style="fill-rule:evenodd;clip-rule:evenodd;stroke-miterlimit:10;">
    <g transform="matrix(1,0,0,1,-2100,0)">
        <g id="Layer-1" serif:id="Layer 1">
        </g>
        <g id="Artboard1" transform="matrix(1,0,0,1,2100,0)">
            <rect x="0" y="0" width="250" height="90" style="fill:none;"/>
            <g transform="matrix(1,0,0,1,40.3149,14.9998)">
                <g id="Layer-11" serif:id="Layer 1">
                    <g>
                        <g transform="matrix(0.978588,0.20583,0.20583,-0.978588,34.7588,48.3671)">
                            <path d="M0.675,3.794C0.675,3.794 -23.911,-1.789 -27.881,13.657C-20.086,13.338 -7.29,13.247 0.675,5.752C0.489,6.64 -5.573,25.664 -39.234,17.658C-38.985,16.474 -25.29,-14.341 0.675,3.794" style="fill:rgb(166,166,166);fill-rule:nonzero;"/>
                        </g>
                        <g transform="matrix(-0.839583,0.543231,0.543231,0.839583,38.1528,3.91146)">
                            <path d="M20.038,27.561C20.038,27.561 12.773,14.847 4.326,14.787C4.43,15.32 7.205,23.133 20.038,29.602C17.16,29.423 -3.498,28.496 -4.074,1.246C-2.491,2.023 16.109,6.083 20.038,27.561" style="fill:rgb(166,166,166);fill-rule:nonzero;"/>
                        </g>
                        <g transform="matrix(-0.987834,-0.155514,-0.155514,0.987834,59.1058,34.1773)">
                            <path d="M19.619,11.559C19.619,11.559 14.448,3.472 4.571,2.496C5.077,3.328 8.695,10.977 19.619,13.276C17.614,13.384 5.611,14.639 0.309,0.533C0.309,0.533 13.274,-4.873 19.619,11.559" style="fill:rgb(210,210,210);fill-rule:nonzero;"/>
                        </g>
                        <g transform="matrix(-0.828087,-0.5606,-0.5606,0.828087,44.5356,61.9466)">
                            <path d="M14.684,-10.368C14.684,-10.368 6.3,-12.341 -0.348,-6.004C0.276,-5.74 4.183,-3.569 14.684,-8.495C13.803,-7.55 4.87,0.853 -4.049,-5.092C-2.767,-6.986 3.148,-14.908 14.684,-10.368" style="fill:rgb(166,166,166);fill-rule:nonzero;"/>
                        </g>
                        <g transform="matrix(0,-1,-1,0,20.2117,3.6625)">
                            <path d="M-2.84,-2.84C-4.408,-2.84 -5.678,-1.569 -5.678,-0.001C-5.678,1.567 -4.408,2.84 -2.84,2.84C-1.272,2.84 -0.001,1.567 -0.001,-0.001C-0.001,-1.569 -1.272,-2.84 -2.84,-2.84" style="fill:rgb(210,210,210);fill-rule:nonzero;"/>
                        </g>
                        <g transform="matrix(0,-1,-1,0,12.0368,9.7564)">
                            <path d="M-2.005,-2.005C-3.112,-2.005 -4.01,-1.107 -4.01,0C-4.01,1.107 -3.112,2.005 -2.005,2.005C-0.898,2.005 0,1.107 0,0C0,-1.107 -0.898,-2.005 -2.005,-2.005" style="fill:rgb(210,210,210);fill-rule:nonzero;"/>
                        </g>
                        <g transform="matrix(0,-1,-1,0,8.24,17.498)">
                            <path d="M-1.538,-1.538C-2.387,-1.538 -3.076,-0.849 -3.076,0C-3.076,0.849 -2.387,1.538 -1.538,1.538C-0.689,1.538 0,0.849 0,0C0,-0.849 -0.689,-1.538 -1.538,-1.538" style="fill:rgb(210,210,210);fill-rule:nonzero;"/>
                        </g>
                        <g transform="matrix(0,-1,-1,0,31.4015,-0.0001)">
                            <path d="M-4.074,-4.074C-6.324,-4.074 -8.148,-2.25 -8.148,-0C-8.148,2.25 -6.324,4.074 -4.074,4.074C-1.824,4.074 -0,2.25 -0,-0C-0,-2.25 -1.824,-4.074 -4.074,-4.074" style="fill:rgb(210,210,210);fill-rule:nonzero;"/>
                        </g>
                        <g transform="matrix(1,0,0,1,63.4184,15.5691)">
                            <path d="M0,14.841L6.212,14.841C6.803,14.841 7.328,14.738 7.787,14.53C8.245,14.324 8.63,14.042 8.94,13.688C9.251,13.333 9.484,12.926 9.639,12.467C9.794,12.009 9.872,11.521 9.872,11.003C9.872,10.486 9.794,9.998 9.639,9.539C9.484,9.081 9.258,8.678 8.962,8.33C8.666,7.983 8.311,7.709 7.898,7.509C7.483,7.31 7.025,7.21 6.522,7.21L0,7.21L0,14.841ZM0,6.389L6.478,6.389C7.409,6.389 8.123,6.108 8.619,5.546C9.114,4.984 9.362,4.274 9.362,3.416C9.362,2.972 9.291,2.544 9.151,2.129C9.01,1.716 8.796,1.35 8.508,1.031C8.219,0.714 7.853,0.462 7.409,0.277C6.966,0.092 6.441,0 5.834,0L0,0L0,6.389ZM5.901,-1.065C6.714,-1.065 7.413,-0.943 7.997,-0.699C8.581,-0.455 9.058,-0.129 9.428,0.277C9.798,0.684 10.072,1.15 10.249,1.675C10.426,2.2 10.515,2.743 10.515,3.305C10.515,3.793 10.456,4.23 10.338,4.614C10.219,4.999 10.06,5.328 9.861,5.601C9.661,5.875 9.432,6.108 9.173,6.3C8.914,6.492 8.644,6.648 8.363,6.766C8.674,6.899 8.992,7.091 9.317,7.343C9.642,7.594 9.931,7.901 10.182,8.263C10.434,8.626 10.641,9.04 10.804,9.506C10.966,9.972 11.048,10.493 11.048,11.07C11.048,11.691 10.948,12.294 10.748,12.878C10.549,13.462 10.249,13.98 9.85,14.431C9.45,14.882 8.955,15.24 8.363,15.507C7.772,15.773 7.091,15.906 6.322,15.906L-1.176,15.906L-1.176,-1.065L5.901,-1.065Z" style="fill:rgb(27,27,27);fill-rule:nonzero;"/>
                        </g>
                        <g transform="matrix(1,0,0,1,91.9913,31.475)">
                            <path d="M0,-16.971L0,-15.906L-9.628,-15.906L-9.628,-9.229L-0.089,-9.229L-0.089,-8.208L-9.628,-8.208L-9.628,-1.065L0.044,-1.065L0.044,0L-10.826,0L-10.826,-16.971L0,-16.971Z" style="fill:rgb(27,27,27);fill-rule:nonzero;"/>
                        </g>
                        <g transform="matrix(1,0,0,1,101.863,21.0042)">
                            <path d="M0,3.749L6.966,3.749L3.483,-4.37L0,3.749ZM3.66,-6.722L11.136,10.471L9.85,10.471L7.321,4.592L-0.355,4.592L-2.884,10.471L-4.126,10.471L3.35,-6.722L3.66,-6.722Z" style="fill:rgb(27,27,27);fill-rule:nonzero;"/>
                        </g>
                        <g transform="matrix(1,0,0,1,119.5,31.697)">
                            <path d="M0,-17.193L0,-6.988C0,-6.071 0.085,-5.247 0.255,-4.515C0.425,-3.783 0.706,-3.161 1.098,-2.651C1.49,-2.141 2.004,-1.749 2.64,-1.476C3.276,-1.202 4.06,-1.065 4.992,-1.065C6.736,-1.065 8.012,-1.553 8.818,-2.529C9.624,-3.505 10.027,-4.992 10.027,-6.988L10.027,-17.193L11.181,-17.193L11.181,-7.01C11.181,-4.615 10.649,-2.847 9.584,-1.708C8.519,-0.569 6.988,0 4.992,0C2.876,0 1.32,-0.599 0.322,-1.797C-0.677,-2.995 -1.176,-4.725 -1.176,-6.988L-1.176,-17.193L0,-17.193Z" style="fill:rgb(27,27,27);fill-rule:nonzero;"/>
                        </g>
                        <g transform="matrix(1,0,0,1,148.938,31.475)">
                            <path d="M0,-16.971L0,-15.906L-5.457,-15.906L-5.457,0L-6.655,0L-6.655,-15.906L-12.09,-15.906L-12.09,-16.971L0,-16.971Z" style="fill:rgb(27,27,27);fill-rule:nonzero;"/>
                        </g>
                        <g transform="matrix(1,0,0,1,155.282,31.475)">
                            <path d="M0,-16.971L6.278,-8.519L12.578,-16.971L13.909,-16.971L6.899,-7.543L6.899,0L5.701,0L5.701,-7.52L-1.353,-16.971L0,-16.971Z" style="fill:rgb(27,27,27);fill-rule:nonzero;"/>
                        </g>
                        <g transform="matrix(1,0,0,1,63.012,45.0705)">
                            <path d="M0,0.037L2.614,0.037C2.953,0.037 3.243,-0.019 3.485,-0.132C3.727,-0.245 3.927,-0.395 4.084,-0.58C4.241,-0.766 4.356,-0.981 4.429,-1.228C4.501,-1.474 4.538,-1.726 4.538,-1.984C4.538,-2.25 4.501,-2.506 4.429,-2.752C4.356,-2.998 4.241,-3.216 4.084,-3.406C3.927,-3.595 3.727,-3.746 3.485,-3.859C3.243,-3.972 2.953,-4.029 2.614,-4.029L0,-4.029L0,0.037ZM2.674,-4.61C3.11,-4.61 3.485,-4.537 3.8,-4.392C4.114,-4.246 4.374,-4.055 4.58,-3.817C4.786,-3.579 4.937,-3.305 5.034,-2.994C5.131,-2.684 5.179,-2.367 5.179,-2.044C5.179,-1.77 5.145,-1.502 5.076,-1.24C5.007,-0.977 4.903,-0.737 4.761,-0.52C4.62,-0.302 4.443,-0.11 4.229,0.055C4.015,0.221 3.759,0.344 3.461,0.424L6.244,4.647L5.506,4.647L2.819,0.521L0,0.521L0,4.647L-0.653,4.647L-0.653,-4.61L2.674,-4.61Z" style="fill:rgb(27,27,27);fill-rule:nonzero;"/>
                        </g>
                        <g transform="matrix(1,0,0,1,85.313,49.7179)">
                            <path d="M0,-9.257L0,-8.676L-5.252,-8.676L-5.252,-5.034L-0.048,-5.034L-0.048,-4.477L-5.252,-4.477L-5.252,-0.581L0.024,-0.581L0.024,0L-5.905,0L-5.905,-9.257L0,-9.257Z" style="fill:rgb(27,27,27);fill-rule:nonzero;"/>
                        </g>
                        <g transform="matrix(1,0,0,1,101.975,49.7179)">
                            <path d="M0,-9.257L0,-8.676L-2.977,-8.676L-2.977,0L-3.63,0L-3.63,-8.676L-6.595,-8.676L-6.595,-9.257L0,-9.257Z" style="fill:rgb(27,27,27);fill-rule:nonzero;"/>
                        </g>
                        <g transform="matrix(1,0,0,1,112.878,45.0705)">
                            <path d="M0,0.037L2.614,0.037C2.953,0.037 3.243,-0.019 3.485,-0.132C3.727,-0.245 3.927,-0.395 4.084,-0.58C4.241,-0.766 4.356,-0.981 4.429,-1.228C4.501,-1.474 4.538,-1.726 4.538,-1.984C4.538,-2.25 4.501,-2.506 4.429,-2.752C4.356,-2.998 4.241,-3.216 4.084,-3.406C3.927,-3.595 3.727,-3.746 3.485,-3.859C3.243,-3.972 2.953,-4.029 2.614,-4.029L0,-4.029L0,0.037ZM2.674,-4.61C3.11,-4.61 3.485,-4.537 3.8,-4.392C4.114,-4.246 4.374,-4.055 4.58,-3.817C4.786,-3.579 4.937,-3.305 5.034,-2.994C5.131,-2.684 5.179,-2.367 5.179,-2.044C5.179,-1.77 5.145,-1.502 5.076,-1.24C5.007,-0.977 4.903,-0.737 4.762,-0.52C4.62,-0.302 4.443,-0.11 4.229,0.055C4.015,0.221 3.759,0.344 3.461,0.424L6.244,4.647L5.506,4.647L2.819,0.521L0,0.521L0,4.647L-0.653,4.647L-0.653,-4.61L2.674,-4.61Z" style="fill:rgb(27,27,27);fill-rule:nonzero;"/>
                        </g>
                        <g transform="matrix(1,0,0,1,135.179,49.7179)">
                            <path d="M0,-9.257L0,-8.676L-5.252,-8.676L-5.252,-5.034L-0.048,-5.034L-0.048,-4.477L-5.252,-4.477L-5.252,-0.581L0.024,-0.581L0.024,0L-5.905,0L-5.905,-9.257L0,-9.257Z" style="fill:rgb(27,27,27);fill-rule:nonzero;"/>
                        </g>
                        <g transform="matrix(1,0,0,1,147.34,44.0063)">
                            <path d="M0,2.045L3.8,2.045L1.9,-2.384L0,2.045ZM1.997,-3.666L6.075,5.711L5.373,5.711L3.993,2.505L-0.194,2.505L-1.573,5.711L-2.251,5.711L1.827,-3.666L1.997,-3.666Z" style="fill:rgb(27,27,27);fill-rule:nonzero;"/>
                        </g>
                        <g transform="matrix(1,0,0,1,168.818,49.7179)">
                            <path d="M0,-9.257L0,-8.676L-2.977,-8.676L-2.977,0L-3.63,0L-3.63,-8.676L-6.595,-8.676L-6.595,-9.257L0,-9.257Z" style="fill:rgb(27,27,27);fill-rule:nonzero;"/>
                        </g>
                        <g transform="matrix(1,0,0,1,62.3526,35.6944)">
                            <path d="M0,0L107.018,0" style="fill:none;fill-rule:nonzero;stroke:rgb(166,166,166);stroke-width:4px;"/>
                        </g>
                    </g>
                </g>
            </g>
        </g>
    </g>
</svg>
