<?xml version="1.0" encoding="UTF-8" standalone="no"?>
<!DOCTYPE svg PUBLIC "-//W3C//DTD SVG 1.1//EN" "http://www.w3.org/Graphics/SVG/1.1/DTD/svg11.dtd">
<svg width="100%" height="100%" viewBox="0 0 250 90" version="1.1" xmlns="http://www.w3.org/2000/svg" xmlns:xlink="http://www.w3.org/1999/xlink" xml:space="preserve" xmlns:serif="http://www.serif.com/" style="fill-rule:evenodd;clip-rule:evenodd;stroke-linejoin:round;stroke-miterlimit:2;">
    <g transform="matrix(1,0,0,1,-3000,0)">
        <g id="Layer-1" serif:id="Layer 1">
        </g>
        <g id="Artboard1" transform="matrix(1,0,0,1,3000,0)">
            <rect x="0" y="0" width="250" height="90" style="fill:none;"/>
            <g transform="matrix(0.909023,0,0,0.909023,11.3704,4.09037)">
                <path d="M35.62,46.8L35.62,67.01L47.89,67.01C48.29,67.01 48.61,66.69 48.61,66.29L48.61,46.8L35.62,46.8Z" style="fill-rule:nonzero;"/>
            </g>
            <g transform="matrix(0.909023,0,0,0.909023,11.3704,4.09037)">
                <path d="M20.6,66.29C20.6,66.69 20.92,67.01 21.32,67.01L33.59,67.01L33.59,46.8L20.6,46.8L20.6,66.29Z" style="fill-rule:nonzero;"/>
            </g>
            <g transform="matrix(0.909023,0,0,0.909023,11.3704,4.09037)">
                <path d="M35.62,46.8L35.62,67.01L47.89,67.01C48.29,67.01 48.61,66.69 48.61,66.29L48.61,46.8L35.62,46.8Z" style="fill:rgb(110,110,110);fill-rule:nonzero;"/>
            </g>
            <g transform="matrix(0.909023,0,0,0.909023,11.3704,4.09037)">
                <path d="M53.65,35.8C50.33,35.06 42.1,33.36 35.62,33.24L35.62,44.78L52.41,44.78C52.77,44.78 53.07,44.51 53.12,44.16L54.2,36.61C54.25,36.24 54.01,35.89 53.64,35.8L53.65,35.8Z" style="fill:rgb(142,142,142);fill-rule:nonzero;"/>
            </g>
            <g transform="matrix(0.909023,0,0,0.909023,11.3704,4.09037)">
                <path d="M15.01,36.6L16.09,44.15C16.14,44.5 16.45,44.77 16.8,44.77L33.59,44.77L33.59,33.23C27.11,33.35 18.88,35.05 15.56,35.79C15.2,35.87 14.95,36.23 15,36.6L15.01,36.6Z" style="fill:rgb(142,142,142);fill-rule:nonzero;"/>
            </g>
            <g transform="matrix(0.909023,0,0,0.909023,11.3704,4.09037)">
                <path d="M20.6,66.29C20.6,66.69 20.92,67.01 21.32,67.01L33.59,67.01L33.59,46.8L20.6,46.8L20.6,66.29Z" style="fill:rgb(110,110,110);fill-rule:nonzero;"/>
            </g>
            <g transform="matrix(0.909023,0,0,0.909023,11.3704,4.09037)">
                <rect x="20.6" y="46.8" width="12.99" height="2.89" style="fill:rgb(62,62,62);"/>
            </g>
            <g transform="matrix(0.909023,0,0,0.909023,11.3704,4.09037)">
                <rect x="35.62" y="46.8" width="12.99" height="2.89" style="fill:rgb(62,62,62);"/>
            </g>
            <g transform="matrix(0.909023,0,0,0.909023,11.3704,4.09037)">
                <path d="M33.812,33.207C28.806,32.881 25.457,29.092 25.39,26.52C25.35,25.01 26.37,24.03 28.05,23.96C31.717,23.815 33.592,26.802 34.511,29.266C35.08,27.218 36.13,24.735 38.01,23.61C39.3,22.84 40.77,22.8 42.39,23.47C43.49,23.93 43.98,24.88 43.74,26.09C43.202,28.761 38.94,32.618 35.413,33.165L35.42,33.22L34.911,33.22C34.81,33.226 34.709,33.23 34.61,33.23C34.608,33.23 34.602,33.23 34.6,33.23L33.81,33.23L33.812,33.207ZM40.22,24.43C39.69,24.43 39.2,24.57 38.75,24.84C36.61,26.11 35.74,29.94 35.45,31.69C38.27,31.1 41.91,27.87 42.32,25.81C42.44,25.19 42.21,24.96 41.83,24.8C41.25,24.56 40.72,24.44 40.22,24.44L40.22,24.43ZM28.28,25.4L28.1,25.4C26.93,25.45 26.81,26.04 26.83,26.48C26.87,28.26 29.5,31.4 33.73,31.75C33.31,29.85 31.92,25.4 28.28,25.4Z" style="fill:rgb(71,71,71);"/>
            </g>
            <g transform="matrix(0.909023,0,0,0.909023,11.3704,4.09037)">
                <path d="M118.03,59.28C116.79,59 116.67,56.12 116.67,54.93C116.67,53.46 116.9,52.1 117.41,51.09C117.58,50.58 118.37,49.79 119.22,48.83C120.8,47.02 123.46,43.97 125.66,40.47C128.54,35.89 129.5,32.95 129.5,30.92C129.5,29.22 128.6,28.09 126.96,28.09C124.92,28.09 121.87,30.35 119.5,35.38C117.29,40.07 116.11,43.8 115.49,46.45C114.98,46.17 114.08,45.54 112.56,45.55C110.02,45.55 106.53,48.77 104.62,52.13C102.73,54.2 100.47,56.29 99.01,56.29C98.5,56.29 98.27,55.67 98.27,55.1C98.27,54.31 98.72,53.07 99.29,51.94C99.97,50.47 102,48.04 102,47.08C102,46.29 101.38,45.67 100.3,45.67C99.45,45.67 98.83,46.8 98.67,46.8C98.1,46.12 97.25,45.56 96.35,45.56C93.21,45.56 88.87,48.59 86.76,52.49C82.6,57.37 75.17,64.21 68.17,64.21C65.29,64.21 63.48,61.72 63.48,58.5C63.48,45.9 79.24,30.92 87.21,30.92C88.4,30.92 88.96,31.6 88.96,32.56C88.96,35.95 85.68,40.3 83.19,40.87C81.44,41.27 81.15,42.23 81.15,42.91C81.15,43.7 81.66,44.1 82.85,44.1C85.84,44.1 92.01,37.38 92.01,32.51C92.01,29.63 90.09,28.39 87.38,28.38C77.32,28.38 60.37,44.09 60.37,58.73C60.37,64.04 63.36,66.98 68.11,66.98C74.03,66.98 80.55,61.8 85.51,56.84C85.51,56.91 85.5,56.97 85.5,57.04C85.5,58.51 86.69,59.53 87.42,59.53C89.96,59.53 93.8,55.69 95.44,54.05C95.38,54.84 95.33,55.41 95.33,56.03C95.33,57.61 96.24,58.91 98.1,58.91C99.57,58.91 101.42,57.81 103.24,56.3L103.24,56.42C103.24,58.85 105.1,59.75 106.23,59.75C108.04,59.75 111.37,57.88 113.86,55.17C113.86,57.94 114.37,61.39 117.08,61.39C118.32,61.39 119.17,60.6 119.17,60.03C119.17,59.52 118.6,59.41 118.04,59.29L118.03,59.28ZM121.75,36.9C124.06,32.32 125.76,30.74 126.22,30.73C126.73,30.73 126.9,30.9 126.9,31.35C126.9,32.88 126.11,34.57 123.73,38.81C121.81,42.26 119.43,45.03 118.36,46.27C118.36,46.27 120,40.39 121.75,36.89L121.75,36.9ZM89.05,56.45C88.77,56.45 88.54,56.28 88.54,56C88.54,53.4 93.34,48.2 95.6,48.2C96.34,48.2 96.84,48.71 96.84,49.33C96.84,50.41 89.89,56.45 89.04,56.45L89.05,56.45ZM107.12,57.02C106.61,57.02 106.16,56.62 106.16,55.89C106.16,53.85 110.06,48.54 112.54,48.37C112.99,48.37 113.44,48.6 113.5,49.05C113.56,49.67 114.01,49.9 114.35,50.01C114.01,51.65 108.87,57.02 107.12,57.02Z" style="fill:rgb(31,31,31);fill-rule:nonzero;"/>
            </g>
            <g transform="matrix(0.909023,0,0,0.909023,11.3704,4.09037)">
                <path d="M177.75,50.8C179.39,50.8 179.84,49.17 179.84,47.24C179.84,45.83 178.94,45.09 177.69,45.09C176.22,45.09 174.13,46.9 171.81,49.27C172.32,47.97 172.77,46.73 172.77,46.33C172.77,45.71 172.26,45.31 171.53,45.31C170.63,45.31 170.23,46.16 169.78,47.63C169.69,47.94 169.56,48.36 169.39,48.84C168.87,49.11 168.31,49.8 167.78,50.46C165.8,53.06 162.41,56.57 161.17,56.57C160.89,56.57 160.61,56.29 160.61,55.61C160.61,53.4 161.8,50.41 163.1,48.6C163.5,48.03 163.89,47.58 163.89,47.07C163.89,46.45 163.49,45.88 162.59,45.88C161.86,45.88 161.29,46.67 160.78,47.41C160.27,48.14 159.82,48.93 158.24,51.76C156.54,54.19 152.93,56.96 151.97,56.96C151.63,56.96 151.52,56.56 151.52,56.28C151.52,55.6 152.2,54.42 152.88,53.23C153.9,51.42 154.97,49.22 154.97,47.3C154.97,46.23 154.63,45.55 153.61,45.55C152.48,45.55 152.08,46.29 152.08,47.7C152.08,48.46 151.88,49.27 151.56,50.1C151.46,50.22 151.36,50.35 151.26,50.47C149.22,52.9 146.06,56.29 144.2,56.29C143.69,56.29 143.46,55.67 143.46,55.1C143.46,54.31 143.91,53.07 144.48,51.94C145.16,50.47 147.19,48.04 147.19,47.08C147.19,46.29 146.57,45.67 145.49,45.67C144.64,45.67 144.02,46.8 143.86,46.8C143.29,46.12 142.44,45.56 141.54,45.56C138.32,45.56 133.81,48.75 131.77,52.8C129.64,55.01 126.7,57.31 123.24,57.31C122.16,57.31 121.66,56.23 121.66,55.78C121.66,55.38 121.88,54.99 122.62,54.82C126.35,53.97 131.1,50.64 131.1,47.7C131.1,46.46 129.8,45.55 128.61,45.55C125.67,45.55 121.77,48.04 119.63,53.07C119.06,53.24 118.55,53.92 118.55,54.48C118.55,55.1 118.83,55.27 118.83,55.61C118.83,58.09 120.41,59.56 122.28,59.56C125.58,59.56 128.4,58.22 130.72,56.47C130.71,56.65 130.68,56.84 130.68,57.02C130.68,58.49 131.87,59.51 132.6,59.51C135.14,59.51 138.98,55.67 140.62,54.03C140.56,54.82 140.51,55.39 140.51,56.01C140.51,57.59 141.42,58.89 143.28,58.89C144.82,58.89 146.77,57.68 148.67,56.07C148.62,56.31 148.57,56.56 148.57,56.8C148.57,57.76 149.13,59.34 151.17,59.34C153.37,59.34 155.92,57.3 158.4,54.87C158.4,57.47 158.63,58.94 160.72,58.94C162.55,58.94 164.97,56.81 167.17,54.43C166.54,56.05 166.06,57.56 166.06,58.04C166.06,58.83 166.85,59.45 167.53,59.45C167.87,59.45 168.38,58.38 168.83,57.25C169.34,56.01 169.96,54.76 170.47,54.03C172.34,51.31 175.95,47.87 176.69,47.87C176.97,47.87 177.03,47.99 177.03,48.15C177.03,48.43 176.63,49.17 176.63,49.68C176.63,50.36 177.14,50.81 177.76,50.81L177.75,50.8ZM127.86,48.09C128.2,48.09 128.31,48.31 128.31,48.65C128.31,49.61 124.47,52.38 122.43,52.78C123.51,51.08 126.5,48.09 127.86,48.09ZM134.23,56.45C133.95,56.45 133.72,56.28 133.72,56C133.72,53.4 138.52,48.2 140.78,48.2C141.52,48.2 142.02,48.71 142.02,49.33C142.02,50.41 135.07,56.45 134.22,56.45L134.23,56.45Z" style="fill:rgb(31,31,31);fill-rule:nonzero;"/>
            </g>
            <g transform="matrix(0.909023,0,0,0.909023,11.3704,4.09037)">
                <path d="M210.05,45.26C206.83,45.26 203.21,48.48 200.05,52.27C200.11,51.48 200.73,49.28 201.18,48.48C209.94,41.64 214.69,33.79 214.69,29.33C214.69,28.09 213.73,26.9 212.38,26.89C209.16,26.89 206.34,29.77 203,35.87C200.7,40.12 198.66,45.16 197.57,50.14C197.48,50.24 197.4,50.35 197.32,50.45C195.28,52.88 192.12,56.27 190.26,56.27C189.75,56.27 189.52,55.65 189.52,55.08C189.52,54.29 189.97,53.05 190.54,51.92C191.22,50.45 193.25,48.02 193.25,47.06C193.25,46.27 192.63,45.65 191.55,45.65C190.7,45.65 190.08,46.78 189.92,46.78C189.35,46.1 188.5,45.54 187.6,45.54C183.31,45.54 176.75,51.19 176.75,57.01C176.75,58.48 177.94,59.5 178.67,59.5C181.21,59.5 185.05,55.66 186.69,54.02C186.63,54.81 186.58,55.38 186.58,56C186.58,57.58 187.49,58.88 189.35,58.88C191.49,58.88 194.43,56.55 196.92,54.03C196.81,55.07 196.73,56.11 196.73,57.12C196.73,59.1 197.35,59.44 198.09,59.44C198.77,59.44 200.01,58.31 200.01,57.35C200.01,56.5 201.19,54.41 202.27,53.22C205.04,50.17 207.47,47.97 208.54,47.97C209.05,47.97 209.56,48.31 209.56,48.87C209.56,51.53 206.4,56.33 204.31,56.33C203.8,56.33 203.29,55.77 202.78,55.77C201.87,55.77 201.25,56.5 201.25,57.18C201.25,58.2 201.76,59.16 203.85,59.16C208.15,59.16 212.5,52.71 212.5,47.97C212.5,46.34 211.54,45.26 210.07,45.26L210.05,45.26ZM205.53,36.5C208.02,31.64 210.62,29.49 211.4,29.49C211.91,29.49 212.14,29.77 212.14,30.17C212.14,31.98 208.01,40.23 201.91,44.75C202.42,43.33 203.67,40.12 205.53,36.5ZM180.29,56.45C180.01,56.45 179.78,56.28 179.78,56C179.78,53.4 184.58,48.2 186.84,48.2C187.58,48.2 188.08,48.71 188.08,49.33C188.08,50.41 181.13,56.45 180.28,56.45L180.29,56.45Z" style="fill:rgb(31,31,31);fill-rule:nonzero;"/>
            </g>
            <g transform="matrix(0.909023,0,0,0.909023,11.3704,4.09037)">
                <path d="M233.08,54.19C232.57,54.19 231.72,54.87 230.93,55.49C229.86,56.34 228.78,57.36 227.15,57.35C226.07,57.35 225.57,56.45 225.57,55.77C225.57,55.37 225.79,54.98 226.53,54.81C230.26,53.96 235.01,50.63 235.01,47.69C235.01,46.45 233.71,45.54 232.52,45.54C229.78,45.54 226.24,47.72 224.02,52.08C221.89,54.46 218.81,57.07 216.99,57.07C215.91,57.07 215.29,56.28 215.29,54.87C215.29,53.68 216.08,50.58 216.99,48.99C219.98,46.61 222.7,44.24 225.86,40.23C229.93,35.03 230.72,31.59 230.72,29.95C230.72,28.76 229.82,27.63 228.46,27.63C225.24,27.63 222.69,30.4 219.3,36.16C216.14,41.59 212.35,50.4 212.35,55.15C212.35,57.86 214.33,59.5 216.59,59.5C218.37,59.5 220.65,58.01 222.79,56.14C223.07,58.3 224.97,59.62 226.69,59.62C228.5,59.62 229.91,59.05 232.34,57.19C233.64,56.17 233.98,55.66 233.98,55.04C233.98,54.48 233.58,54.19 233.08,54.19ZM221.45,37.41C224.28,32.38 226.76,30.4 227.44,30.41C227.84,30.41 228,30.58 228,30.92C228,32.1 226.87,34.65 223.87,38.6C221.55,41.71 219.18,44.08 218.05,44.98C218.39,43.74 219.12,41.53 221.44,37.41L221.45,37.41ZM232.23,48.66C232.23,49.62 228.39,52.39 226.35,52.79C227.43,51.09 230.42,48.1 231.78,48.1C232.12,48.1 232.23,48.32 232.23,48.66Z" style="fill:rgb(31,31,31);fill-rule:nonzero;"/>
            </g>
        </g>
    </g>
</svg>
