<?xml version="1.0" encoding="UTF-8" standalone="no"?>
<!DOCTYPE svg PUBLIC "-//W3C//DTD SVG 1.1//EN" "http://www.w3.org/Graphics/SVG/1.1/DTD/svg11.dtd">
<svg width="100%" height="100%" viewBox="0 0 250 90" version="1.1" xmlns="http://www.w3.org/2000/svg" xmlns:xlink="http://www.w3.org/1999/xlink" xml:space="preserve" xmlns:serif="http://www.serif.com/" style="fill-rule:evenodd;clip-rule:evenodd;stroke-linejoin:round;stroke-miterlimit:2;">
    <g transform="matrix(1,0,0,1,-2700,0)">
        <g id="Layer-1" serif:id="Layer 1">
        </g>
        <g id="Artboard1" transform="matrix(1,0,0,1,2700,0)">
            <rect x="0" y="0" width="250" height="90" style="fill:none;"/>
            <g transform="matrix(0.177084,0,0,0.177084,5.70878,148.891)">
                <g transform="matrix(2.10691,0,0,2.10691,-1885.43,-3099.29)">
                    <path d="M1026.18,1250.23C1023.59,1250.23 1021.17,1249.8 1018.94,1248.93C1016.71,1248.06 1014.76,1246.83 1013.08,1245.25C1011.4,1243.67 1010.1,1241.81 1009.16,1239.67C1008.23,1237.54 1007.76,1235.22 1007.76,1232.72C1007.76,1230.19 1008.23,1227.86 1009.16,1225.74C1010.1,1223.62 1011.39,1221.79 1013.06,1220.24C1014.72,1218.68 1016.65,1217.47 1018.87,1216.6C1021.09,1215.73 1023.49,1215.3 1026.08,1215.3C1028.71,1215.3 1031.12,1215.71 1033.3,1216.53C1035.48,1217.36 1037.38,1218.5 1038.99,1219.95L1032.68,1226.31C1031.92,1225.49 1031,1224.84 1029.9,1224.36C1028.81,1223.89 1027.54,1223.65 1026.08,1223.65C1024.82,1223.65 1023.66,1223.86 1022.6,1224.27C1021.54,1224.68 1020.63,1225.28 1019.87,1226.07C1019.11,1226.86 1018.51,1227.82 1018.09,1228.94C1017.66,1230.07 1017.45,1231.33 1017.45,1232.72C1017.45,1234.14 1017.66,1235.41 1018.09,1236.54C1018.51,1237.66 1019.11,1238.62 1019.87,1239.41C1020.63,1240.2 1021.54,1240.81 1022.6,1241.24C1023.66,1241.66 1024.82,1241.88 1026.08,1241.88C1027.51,1241.88 1028.78,1241.66 1029.9,1241.21C1031.03,1240.77 1032,1240.12 1032.82,1239.27L1039.18,1245.63C1037.51,1247.08 1035.62,1248.21 1033.54,1249.02C1031.45,1249.83 1029,1250.23 1026.18,1250.23Z" style="fill:rgb(27,27,27);fill-rule:nonzero;"/>
                    <path d="M1057.84,1250.33C1055.18,1250.33 1052.74,1249.88 1050.5,1249C1048.27,1248.11 1046.33,1246.88 1044.67,1245.3C1043.01,1243.71 1041.71,1241.85 1040.8,1239.69C1039.88,1237.54 1039.42,1235.22 1039.42,1232.72C1039.42,1230.19 1039.87,1227.86 1040.77,1225.74C1041.68,1223.62 1042.95,1221.77 1044.6,1220.19C1046.24,1218.61 1048.18,1217.38 1050.41,1216.51C1052.64,1215.64 1055.08,1215.2 1057.74,1215.2C1060.4,1215.2 1062.84,1215.64 1065.08,1216.51C1067.31,1217.38 1069.24,1218.61 1070.89,1220.19C1072.54,1221.77 1073.81,1223.63 1074.71,1225.76C1075.61,1227.9 1076.06,1230.23 1076.06,1232.77C1076.06,1235.27 1075.61,1237.58 1074.71,1239.72C1073.81,1241.85 1072.54,1243.72 1070.89,1245.32C1069.24,1246.92 1067.31,1248.15 1065.1,1249.02C1062.88,1249.89 1060.46,1250.33 1057.84,1250.33ZM1057.74,1241.97C1059.51,1241.97 1061.05,1241.59 1062.35,1240.83C1063.64,1240.07 1064.64,1239 1065.34,1237.61C1066.03,1236.21 1066.38,1234.59 1066.38,1232.72C1066.38,1231.33 1066.18,1230.07 1065.79,1228.94C1065.39,1227.82 1064.81,1226.86 1064.06,1226.05C1063.3,1225.24 1062.38,1224.62 1061.33,1224.2C1060.27,1223.77 1059.07,1223.56 1057.74,1223.56C1055.97,1223.56 1054.43,1223.93 1053.14,1224.67C1051.84,1225.42 1050.84,1226.48 1050.15,1227.85C1049.45,1229.23 1049.1,1230.85 1049.1,1232.72C1049.1,1234.14 1049.3,1235.42 1049.7,1236.56C1050.09,1237.7 1050.67,1238.67 1051.43,1239.48C1052.19,1240.29 1053.1,1240.9 1054.16,1241.33C1055.22,1241.76 1056.41,1241.97 1057.74,1241.97Z" style="fill:rgb(27,27,27);fill-rule:nonzero;"/>
                    <path d="M1074.69,1249.66L1087.55,1215.87L1097.23,1215.87L1109.95,1249.66L1100.08,1249.66L1090.63,1220.95L1094.05,1220.95L1084.37,1249.66L1074.69,1249.66ZM1083.04,1243.97L1083.04,1236.56L1101.93,1236.56L1101.93,1243.97L1083.04,1243.97Z" style="fill:rgb(27,27,27);fill-rule:nonzero;"/>
                    <path d="M1122.24,1250.23C1119.37,1250.23 1116.86,1249.81 1114.72,1248.97C1112.59,1248.13 1110.62,1246.8 1108.81,1244.96L1114.75,1239.03C1115.98,1240.2 1117.28,1241.1 1118.64,1241.71C1120,1242.33 1121.45,1242.64 1123,1242.64C1124.3,1242.64 1125.28,1242.44 1125.95,1242.04C1126.61,1241.65 1126.94,1241.1 1126.94,1240.41C1126.94,1239.71 1126.66,1239.13 1126.09,1238.67C1125.52,1238.21 1124.77,1237.8 1123.83,1237.44C1122.9,1237.08 1121.87,1236.7 1120.75,1236.33C1119.63,1235.94 1118.51,1235.49 1117.4,1234.95C1116.3,1234.41 1115.28,1233.75 1114.34,1232.98C1113.41,1232.2 1112.66,1231.24 1112.09,1230.08C1111.52,1228.93 1111.23,1227.51 1111.23,1225.84C1111.23,1223.65 1111.76,1221.77 1112.8,1220.19C1113.84,1218.61 1115.31,1217.39 1117.21,1216.56C1119.11,1215.72 1121.34,1215.3 1123.9,1215.3C1126.44,1215.3 1128.79,1215.7 1130.95,1216.51C1133.12,1217.32 1134.92,1218.46 1136.34,1219.95L1130.36,1225.88C1129.32,1224.87 1128.27,1224.12 1127.23,1223.63C1126.18,1223.14 1125.04,1222.89 1123.81,1222.89C1122.83,1222.89 1122.05,1223.05 1121.46,1223.37C1120.88,1223.68 1120.58,1224.16 1120.58,1224.79C1120.58,1225.46 1120.87,1226 1121.44,1226.43C1122.01,1226.86 1122.76,1227.24 1123.69,1227.59C1124.62,1227.94 1125.65,1228.3 1126.78,1228.68C1127.9,1229.06 1129.02,1229.51 1130.12,1230.04C1131.23,1230.56 1132.25,1231.22 1133.18,1232.03C1134.12,1232.84 1134.87,1233.84 1135.44,1235.04C1136.01,1236.25 1136.29,1237.7 1136.29,1239.41C1136.29,1242.86 1135.07,1245.53 1132.62,1247.41C1130.16,1249.29 1126.71,1250.23 1122.24,1250.23Z" style="fill:rgb(27,27,27);fill-rule:nonzero;"/>
                    <path d="M1146.4,1249.66L1146.4,1215.87L1155.89,1215.87L1155.89,1249.66L1146.4,1249.66ZM1136.29,1223.94L1136.29,1215.87L1166.05,1215.87L1166.05,1223.94L1136.29,1223.94Z" style="fill:rgb(27,27,27);fill-rule:nonzero;"/>
                    <path d="M1185.09,1236.18L1185.09,1229.63L1190.83,1229.63C1192.12,1229.63 1193.11,1229.32 1193.79,1228.68C1194.48,1228.05 1194.82,1227.21 1194.82,1226.17C1194.82,1225.12 1194.48,1224.29 1193.79,1223.65C1193.11,1223.02 1192.12,1222.7 1190.83,1222.7L1185.09,1222.7L1185.09,1215.87L1192.35,1215.87C1194.69,1215.87 1196.75,1216.3 1198.52,1217.15C1200.29,1218 1201.68,1219.19 1202.69,1220.71C1203.71,1222.23 1204.21,1224 1204.21,1226.03C1204.21,1228.05 1203.7,1229.82 1202.67,1231.34C1201.64,1232.86 1200.21,1234.05 1198.37,1234.9C1196.54,1235.76 1194.37,1236.18 1191.87,1236.18L1185.09,1236.18ZM1177.4,1249.66L1177.4,1215.87L1186.89,1215.87L1186.89,1249.66L1177.4,1249.66ZM1195.62,1249.66L1186.41,1235.23L1194.96,1233.38L1206.4,1249.66L1195.62,1249.66Z" style="fill:rgb(27,27,27);fill-rule:nonzero;"/>
                    <path d="M1208.77,1249.66L1208.77,1215.87L1218.26,1215.87L1218.26,1249.66L1208.77,1249.66ZM1216.46,1249.66L1216.46,1241.78L1234.59,1241.78L1234.59,1249.66L1216.46,1249.66ZM1216.46,1236.28L1216.46,1228.59L1232.83,1228.59L1232.83,1236.28L1216.46,1236.28ZM1216.46,1223.75L1216.46,1215.87L1234.3,1215.87L1234.3,1223.75L1216.46,1223.75Z" style="fill:rgb(27,27,27);fill-rule:nonzero;"/>
                    <path d="M1239.1,1249.66L1239.1,1215.87L1245.98,1215.87L1258.56,1234.28L1255.57,1234.28L1268.1,1215.87L1274.98,1215.87L1274.98,1249.66L1265.58,1249.66L1265.58,1231.44L1266.96,1231.82L1260.08,1241.69L1254,1241.69L1247.17,1231.82L1248.5,1231.44L1248.5,1249.66L1239.1,1249.66Z" style="fill:rgb(27,27,27);fill-rule:nonzero;"/>
                    <path d="M1280.58,1249.66L1280.58,1215.87L1290.07,1215.87L1290.07,1249.66L1280.58,1249.66ZM1288.27,1249.66L1288.27,1241.78L1306.4,1241.78L1306.4,1249.66L1288.27,1249.66ZM1288.27,1236.28L1288.27,1228.59L1304.64,1228.59L1304.64,1236.28L1288.27,1236.28ZM1288.27,1223.75L1288.27,1215.87L1306.12,1215.87L1306.12,1223.75L1288.27,1223.75Z" style="fill:rgb(27,27,27);fill-rule:nonzero;"/>
                    <path d="M1317.27,1249.66L1317.27,1241.59L1325.15,1241.59C1326.92,1241.59 1328.45,1241.27 1329.75,1240.62C1331.05,1239.97 1332.05,1238.98 1332.74,1237.65C1333.44,1236.33 1333.79,1234.68 1333.79,1232.72C1333.79,1230.76 1333.43,1229.13 1332.72,1227.83C1332.01,1226.53 1331.01,1225.56 1329.73,1224.91C1328.45,1224.26 1326.92,1223.94 1325.15,1223.94L1316.79,1223.94L1316.79,1215.87L1325.15,1215.87C1327.81,1215.87 1330.25,1216.26 1332.48,1217.06C1334.71,1217.85 1336.65,1218.99 1338.3,1220.47C1339.94,1221.96 1341.21,1223.74 1342.12,1225.81C1343.02,1227.88 1343.47,1230.2 1343.47,1232.77C1343.47,1235.33 1343.02,1237.65 1342.12,1239.72C1341.21,1241.79 1339.94,1243.57 1338.3,1245.06C1336.65,1246.55 1334.72,1247.68 1332.5,1248.48C1330.29,1249.27 1327.87,1249.66 1325.24,1249.66L1317.27,1249.66ZM1310.91,1249.66L1310.91,1215.87L1320.4,1215.87L1320.4,1249.66L1310.91,1249.66Z" style="fill:rgb(27,27,27);fill-rule:nonzero;"/>
                    <rect x="1347.36" y="1215.87" width="9.493" height="33.794" style="fill:rgb(27,27,27);fill-rule:nonzero;"/>
                    <path d="M1359.94,1249.66L1372.8,1215.87L1382.48,1215.87L1395.2,1249.66L1385.33,1249.66L1375.89,1220.95L1379.3,1220.95L1369.62,1249.66L1359.94,1249.66ZM1368.29,1243.97L1368.29,1236.56L1387.18,1236.56L1387.18,1243.97L1368.29,1243.97Z" style="fill:rgb(27,27,27);fill-rule:nonzero;"/>
                    <path d="M1397.91,1249.66L1397.91,1215.87L1407.4,1215.87L1407.4,1249.66L1397.91,1249.66ZM1405.64,1249.66L1405.64,1241.59L1421.45,1241.59L1421.45,1249.66L1405.64,1249.66Z" style="fill:rgb(27,27,27);fill-rule:nonzero;"/>
                    <path d="M1090.13,1299.67C1087.26,1299.67 1084.75,1299.25 1082.61,1298.41C1080.48,1297.58 1078.51,1296.24 1076.7,1294.4L1082.64,1288.47C1083.87,1289.64 1085.17,1290.54 1086.53,1291.15C1087.89,1291.77 1089.34,1292.08 1090.89,1292.08C1092.19,1292.08 1093.17,1291.88 1093.84,1291.49C1094.5,1291.09 1094.83,1290.54 1094.83,1289.85C1094.83,1289.15 1094.55,1288.57 1093.98,1288.12C1093.41,1287.66 1092.66,1287.25 1091.72,1286.88C1090.79,1286.52 1089.76,1286.14 1088.64,1285.77C1087.52,1285.39 1086.4,1284.93 1085.29,1284.39C1084.19,1283.85 1083.17,1283.19 1082.23,1282.42C1081.3,1281.64 1080.55,1280.68 1079.98,1279.52C1079.41,1278.37 1079.12,1276.95 1079.12,1275.28C1079.12,1273.09 1079.65,1271.21 1080.69,1269.63C1081.73,1268.05 1083.21,1266.84 1085.1,1266C1087,1265.16 1089.23,1264.74 1091.8,1264.74C1094.33,1264.74 1096.68,1265.14 1098.85,1265.95C1101.01,1266.76 1102.81,1267.9 1104.23,1269.39L1098.25,1275.32C1097.21,1274.31 1096.16,1273.56 1095.12,1273.07C1094.08,1272.58 1092.94,1272.33 1091.7,1272.33C1090.72,1272.33 1089.94,1272.49 1089.35,1272.81C1088.77,1273.12 1088.47,1273.6 1088.47,1274.23C1088.47,1274.9 1088.76,1275.44 1089.33,1275.87C1089.9,1276.3 1090.65,1276.68 1091.58,1277.03C1092.52,1277.38 1093.55,1277.74 1094.67,1278.12C1095.79,1278.5 1096.91,1278.95 1098.01,1279.48C1099.12,1280 1100.14,1280.66 1101.08,1281.47C1102.01,1282.28 1102.76,1283.28 1103.33,1284.48C1103.9,1285.69 1104.18,1287.14 1104.18,1288.85C1104.18,1292.3 1102.96,1294.96 1100.51,1296.85C1098.05,1298.73 1094.6,1299.67 1090.13,1299.67Z" style="fill:rgb(27,27,27);fill-rule:nonzero;"/>
                    <path d="M1124.45,1299.77C1121.79,1299.77 1119.35,1299.32 1117.12,1298.44C1114.89,1297.55 1112.94,1296.32 1111.28,1294.74C1109.62,1293.15 1108.33,1291.29 1107.41,1289.13C1106.49,1286.98 1106.04,1284.66 1106.04,1282.16C1106.04,1279.63 1106.49,1277.3 1107.39,1275.18C1108.29,1273.06 1109.56,1271.21 1111.21,1269.63C1112.85,1268.05 1114.79,1266.82 1117.02,1265.95C1119.25,1265.08 1121.7,1264.64 1124.36,1264.64C1127.01,1264.64 1129.46,1265.08 1131.69,1265.95C1133.92,1266.82 1135.86,1268.05 1137.5,1269.63C1139.15,1271.21 1140.42,1273.07 1141.32,1275.2C1142.23,1277.34 1142.68,1279.67 1142.68,1282.21C1142.68,1284.7 1142.23,1287.02 1141.32,1289.16C1140.42,1291.3 1139.15,1293.16 1137.5,1294.76C1135.86,1296.36 1133.93,1297.59 1131.71,1298.46C1129.5,1299.33 1127.08,1299.77 1124.45,1299.77ZM1124.36,1291.41C1126.13,1291.41 1127.66,1291.03 1128.96,1290.27C1130.26,1289.52 1131.25,1288.44 1131.95,1287.05C1132.65,1285.65 1132.99,1284.03 1132.99,1282.16C1132.99,1280.77 1132.8,1279.51 1132.4,1278.38C1132.01,1277.26 1131.43,1276.3 1130.67,1275.49C1129.91,1274.68 1129,1274.07 1127.94,1273.64C1126.88,1273.21 1125.68,1273 1124.36,1273C1122.58,1273 1121.05,1273.37 1119.75,1274.11C1118.45,1274.86 1117.46,1275.92 1116.76,1277.29C1116.07,1278.67 1115.72,1280.29 1115.72,1282.16C1115.72,1283.58 1115.92,1284.86 1116.31,1286C1116.71,1287.14 1117.28,1288.12 1118.04,1288.92C1118.8,1289.73 1119.71,1290.35 1120.77,1290.77C1121.83,1291.2 1123.03,1291.41 1124.36,1291.41Z" style="fill:rgb(27,27,27);fill-rule:nonzero;"/>
                    <path d="M1146.57,1299.1L1146.57,1265.31L1156.06,1265.31L1156.06,1299.1L1146.57,1299.1ZM1154.31,1299.1L1154.31,1291.03L1170.11,1291.03L1170.11,1299.1L1154.31,1299.1Z" style="fill:rgb(27,27,27);fill-rule:nonzero;"/>
                    <path d="M1186.77,1299.67C1183.8,1299.67 1181.2,1299.06 1178.99,1297.85C1176.77,1296.63 1175.05,1294.94 1173.81,1292.79C1172.58,1290.64 1171.96,1288.17 1171.96,1285.39L1171.96,1265.31L1181.45,1265.31L1181.45,1286.24C1181.45,1287.32 1181.69,1288.23 1182.17,1288.99C1182.64,1289.75 1183.28,1290.33 1184.09,1290.73C1184.89,1291.12 1185.79,1291.32 1186.77,1291.32C1187.78,1291.32 1188.68,1291.12 1189.45,1290.73C1190.23,1290.33 1190.84,1289.76 1191.28,1289.02C1191.72,1288.27 1191.94,1287.36 1191.94,1286.29L1191.94,1265.31L1201.48,1265.31L1201.48,1285.43C1201.48,1288.22 1200.87,1290.68 1199.66,1292.81C1198.44,1294.95 1196.73,1296.63 1194.53,1297.85C1192.33,1299.06 1189.74,1299.67 1186.77,1299.67Z" style="fill:rgb(27,27,27);fill-rule:nonzero;"/>
                    <path d="M1213.97,1299.1L1213.97,1265.31L1223.46,1265.31L1223.46,1299.1L1213.97,1299.1ZM1203.86,1273.38L1203.86,1265.31L1233.62,1265.31L1233.62,1273.38L1203.86,1273.38Z" style="fill:rgb(27,27,27);fill-rule:nonzero;"/>
                    <rect x="1237.17" y="1265.31" width="9.493" height="33.794" style="fill:rgb(27,27,27);fill-rule:nonzero;"/>
                    <path d="M1268.98,1299.77C1266.32,1299.77 1263.87,1299.32 1261.64,1298.44C1259.41,1297.55 1257.47,1296.32 1255.8,1294.74C1254.14,1293.15 1252.85,1291.29 1251.94,1289.13C1251.02,1286.98 1250.56,1284.66 1250.56,1282.16C1250.56,1279.63 1251.01,1277.3 1251.91,1275.18C1252.81,1273.06 1254.09,1271.21 1255.73,1269.63C1257.38,1268.05 1259.32,1266.82 1261.55,1265.95C1263.78,1265.08 1266.22,1264.64 1268.88,1264.64C1271.54,1264.64 1273.98,1265.08 1276.21,1265.95C1278.44,1266.82 1280.38,1268.05 1282.03,1269.63C1283.67,1271.21 1284.95,1273.07 1285.85,1275.2C1286.75,1277.34 1287.2,1279.67 1287.2,1282.21C1287.2,1284.7 1286.75,1287.02 1285.85,1289.16C1284.95,1291.3 1283.67,1293.16 1282.03,1294.76C1280.38,1296.36 1278.45,1297.59 1276.24,1298.46C1274.02,1299.33 1271.6,1299.77 1268.98,1299.77ZM1268.88,1291.41C1270.65,1291.41 1272.19,1291.03 1273.48,1290.27C1274.78,1289.52 1275.78,1288.44 1276.48,1287.05C1277.17,1285.65 1277.52,1284.03 1277.52,1282.16C1277.52,1280.77 1277.32,1279.51 1276.92,1278.38C1276.53,1277.26 1275.95,1276.3 1275.19,1275.49C1274.43,1274.68 1273.52,1274.07 1272.46,1273.64C1271.4,1273.21 1270.21,1273 1268.88,1273C1267.11,1273 1265.57,1273.37 1264.28,1274.11C1262.98,1274.86 1261.98,1275.92 1261.29,1277.29C1260.59,1278.67 1260.24,1280.29 1260.24,1282.16C1260.24,1283.58 1260.44,1284.86 1260.84,1286C1261.23,1287.14 1261.81,1288.12 1262.57,1288.92C1263.33,1289.73 1264.24,1290.35 1265.3,1290.77C1266.36,1291.2 1267.55,1291.41 1268.88,1291.41Z" style="fill:rgb(27,27,27);fill-rule:nonzero;"/>
                    <path d="M1291.09,1299.1L1291.09,1265.31L1297.74,1265.31L1300.59,1272.43L1300.59,1299.1L1291.09,1299.1ZM1314.35,1299.1L1294.75,1274.47L1297.74,1265.31L1317.34,1289.94L1314.35,1299.1ZM1314.35,1299.1L1311.98,1291.6L1311.98,1265.31L1321.47,1265.31L1321.47,1299.1L1314.35,1299.1Z" style="fill:rgb(27,27,27);fill-rule:nonzero;"/>
                    <path d="M1337.32,1299.67C1334.44,1299.67 1331.93,1299.25 1329.8,1298.41C1327.66,1297.58 1325.69,1296.24 1323.89,1294.4L1329.82,1288.47C1331.06,1289.64 1332.35,1290.54 1333.71,1291.15C1335.08,1291.77 1336.53,1292.08 1338.08,1292.08C1339.38,1292.08 1340.36,1291.88 1341.02,1291.49C1341.69,1291.09 1342.02,1290.54 1342.02,1289.85C1342.02,1289.15 1341.74,1288.57 1341.17,1288.12C1340.6,1287.66 1339.85,1287.25 1338.91,1286.88C1337.98,1286.52 1336.95,1286.14 1335.83,1285.77C1334.7,1285.39 1333.59,1284.93 1332.48,1284.39C1331.37,1283.85 1330.35,1283.19 1329.42,1282.42C1328.49,1281.64 1327.73,1280.68 1327.16,1279.52C1326.6,1278.37 1326.31,1276.95 1326.31,1275.28C1326.31,1273.09 1326.83,1271.21 1327.88,1269.63C1328.92,1268.05 1330.39,1266.84 1332.29,1266C1334.19,1265.16 1336.42,1264.74 1338.98,1264.74C1341.51,1264.74 1343.86,1265.14 1346.03,1265.95C1348.2,1266.76 1350,1267.9 1351.42,1269.39L1345.44,1275.32C1344.39,1274.31 1343.35,1273.56 1342.31,1273.07C1341.26,1272.58 1340.12,1272.33 1338.89,1272.33C1337.91,1272.33 1337.12,1272.49 1336.54,1272.81C1335.95,1273.12 1335.66,1273.6 1335.66,1274.23C1335.66,1274.9 1335.95,1275.44 1336.52,1275.87C1337.09,1276.3 1337.84,1276.68 1338.77,1277.03C1339.7,1277.38 1340.73,1277.74 1341.86,1278.12C1342.98,1278.5 1344.09,1278.95 1345.2,1279.48C1346.31,1280 1347.33,1280.66 1348.26,1281.47C1349.2,1282.28 1349.95,1283.28 1350.52,1284.48C1351.09,1285.69 1351.37,1287.14 1351.37,1288.85C1351.37,1292.3 1350.14,1294.96 1347.69,1296.85C1345.24,1298.73 1341.78,1299.67 1337.32,1299.67Z" style="fill:rgb(27,27,27);fill-rule:nonzero;"/>
                </g>
                <g transform="matrix(1.66211,0,0,1.66211,-1583.35,-2874.96)">
                    <path d="M1299.86,1240.84L1282.54,1270.84L1244.76,1270.84L1225.88,1303.55L1244.77,1336.27L1282.54,1336.27L1299.86,1366.27L1227.44,1366.27L1191.23,1303.55L1227.44,1240.84L1299.86,1240.84ZM1299.86,1240.84L1372.29,1240.84L1408.4,1303.38L1417.07,1288.7L1444.7,1240.84L1517.12,1240.84L1499.81,1270.84L1462.03,1270.84L1451.71,1288.7L1526.1,1288.7L1508.55,1318.41L1480.91,1366.27L1408.5,1366.27L1425.82,1336.27L1463.59,1336.27L1473.91,1318.41L1399.52,1318.41L1408.3,1303.55L1373.85,1303.55L1354.96,1270.84L1317.18,1270.84L1299.86,1240.84ZM1408.5,1366.27L1373.85,1366.27L1354.96,1333.55L1329.75,1333.55L1329.75,1366.27L1300.04,1366.27L1300.04,1303.86L1299.86,1303.55L1372.29,1303.55L1408.5,1366.27Z" style="fill:rgb(27,27,27);"/>
                </g>
            </g>
        </g>
    </g>
</svg>
