<?xml version="1.0" encoding="UTF-8" standalone="no"?>
<!DOCTYPE svg PUBLIC "-//W3C//DTD SVG 1.1//EN" "http://www.w3.org/Graphics/SVG/1.1/DTD/svg11.dtd">
<svg width="100%" height="100%" viewBox="0 0 250 90" version="1.1" xmlns="http://www.w3.org/2000/svg" xmlns:xlink="http://www.w3.org/1999/xlink" xml:space="preserve" xmlns:serif="http://www.serif.com/" style="fill-rule:evenodd;clip-rule:evenodd;stroke-linejoin:round;stroke-miterlimit:2;">
    <g transform="matrix(1,0,0,1,-2400,0)">
        <g id="Layer-1" serif:id="Layer 1">
        </g>
        <g id="Artboard1" transform="matrix(1,0,0,1,2400,0)">
            <rect x="0" y="0" width="250" height="90" style="fill:none;"/>
            <g transform="matrix(0.0702627,0,0,0.0772021,57.5494,-1.18811)">
                <g>
                    <g transform="matrix(4.83548,0,0,4.40083,-1691.38,-1877.33)">
                        <path d="M394.206,586.43L396.359,581.966L398.325,581.966L399.137,600.536L397.046,600.536C395.673,595.314 393.946,591.465 391.865,588.989C389.285,585.889 386.206,584.338 382.627,584.338C378.757,584.338 375.605,586.065 373.17,589.519C370.736,592.973 369.519,598.82 369.519,607.059C369.519,613.988 370.913,619.273 373.701,622.914C376.073,625.993 379.402,627.533 383.688,627.533C387.433,627.533 390.575,626.337 393.113,623.944C395.652,621.53 397.306,617.9 398.076,613.052L400.292,613.052C399.647,618.545 397.764,622.768 394.643,625.723C391.522,628.677 387.589,630.155 382.845,630.155C378.996,630.155 375.459,629.187 372.234,627.252C369.03,625.317 366.46,622.54 364.525,618.919C362.611,615.278 361.654,611.294 361.654,606.966C361.654,602.367 362.642,598.05 364.619,594.014C366.616,589.977 369.165,586.95 372.265,584.931C375.365,582.892 378.705,581.873 382.284,581.873C384.281,581.873 386.216,582.216 388.089,582.903C389.961,583.589 392,584.765 394.206,586.43Z" style="fill:rgb(27,27,27);fill-rule:nonzero;"/>
                        <path d="M427.85,581.873C431.741,581.873 435.382,582.903 438.774,584.963C442.186,587.002 444.849,589.863 446.763,593.545C448.698,597.207 449.666,601.338 449.666,605.936C449.666,610.534 448.698,614.685 446.763,618.389C444.828,622.092 442.165,624.984 438.774,627.065C435.403,629.125 431.824,630.155 428.037,630.155C424.334,630.155 420.859,629.146 417.613,627.127C414.367,625.088 411.756,622.186 409.78,618.42C407.824,614.633 406.846,610.44 406.846,605.842C406.846,601.306 407.793,597.218 409.686,593.577C411.6,589.915 414.211,587.054 417.52,584.994C420.828,582.913 424.271,581.873 427.85,581.873ZM428.35,584.276C424.292,584.276 421.005,585.961 418.487,589.332C415.97,592.703 414.711,598.196 414.711,605.811C414.711,614.071 416.001,619.783 418.581,622.945C421.161,626.108 424.355,627.689 428.162,627.689C430.826,627.689 433.166,626.971 435.185,625.536C437.203,624.1 438.805,621.822 439.991,618.701C441.198,615.58 441.801,611.481 441.801,606.404C441.801,600.869 441.239,596.552 440.116,593.452C438.992,590.331 437.39,588.021 435.309,586.523C433.229,585.025 430.909,584.276 428.35,584.276Z" style="fill:rgb(27,27,27);fill-rule:nonzero;"/>
                        <path d="M452.818,582.84L472.262,582.84L472.262,585.181L468.891,585.181C467.497,585.181 466.551,585.348 466.051,585.68C465.552,586.013 465.302,586.461 465.302,587.023C465.302,587.459 465.489,588.094 465.864,588.926L466.114,589.582L478.254,620.511L489.022,590.986C489.23,590.404 489.334,589.696 489.334,588.864C489.334,587.699 488.991,586.794 488.304,586.149C487.638,585.504 486.712,585.181 485.526,585.181L482.374,585.181L482.374,582.84L499.415,582.84L499.415,585.181L498.042,585.181C497.001,585.181 495.961,585.67 494.921,586.648C493.901,587.626 492.975,589.238 492.143,591.486L477.849,630.092L475.57,630.092L459.279,588.833C458.717,587.459 458.062,586.513 457.312,585.993C456.584,585.452 455.586,585.181 454.316,585.181L452.818,585.181L452.818,582.84Z" style="fill:rgb(27,27,27);fill-rule:nonzero;"/>
                        <path d="M503.441,582.84L540.019,582.84L540.893,598.414L538.802,598.414C537.97,593.504 536.648,590.071 534.838,588.115C533.049,586.159 530.708,585.181 527.816,585.181L518.765,585.181C518.037,585.181 517.485,585.379 517.111,585.774C516.736,586.169 516.549,586.773 516.549,587.584L516.549,604.032L520.513,604.032C522.635,604.032 524.352,603.273 525.662,601.754C526.994,600.235 527.712,597.904 527.816,594.763L529.969,594.763L529.969,616.141L527.816,616.141C527.712,612.604 526.984,610.076 525.631,608.557C524.3,607.018 522.479,606.248 520.169,606.248L516.549,606.248L516.549,624.599C516.549,625.265 516.768,625.775 517.205,626.129C517.662,626.482 518.411,626.659 519.452,626.659L526.599,626.659C534.36,626.659 538.833,621.707 540.019,611.803L542.266,611.803L541.486,629L503.441,629L503.441,626.659L506.593,626.659C507.821,626.659 508.684,626.451 509.184,626.035C509.683,625.598 509.933,624.974 509.933,624.162L509.933,587.584C509.933,586.773 509.714,586.169 509.277,585.774C508.84,585.379 508.154,585.181 507.217,585.181L503.441,585.181L503.441,582.84Z" style="fill:rgb(27,27,27);fill-rule:nonzero;"/>
                        <path d="M548.04,582.84L559.057,582.84L586.897,619.106L586.897,592.859C586.897,590.216 586.293,588.261 585.086,586.991C583.984,585.826 582.34,585.223 580.155,585.181L580.155,582.84L596.291,582.84L596.291,585.181C594.647,585.181 593.419,585.41 592.608,585.868C591.796,586.325 591.089,587.158 590.486,588.365C589.882,589.571 589.581,590.893 589.581,592.328L589.581,629L586.647,629L557.84,591.267L557.84,619.106C557.84,621.624 558.475,623.507 559.744,624.755C561.013,625.983 562.979,626.618 565.642,626.659L565.642,629L548.04,629L548.04,626.659C550.246,626.576 551.993,625.858 553.283,624.506C554.573,623.133 555.218,621.458 555.218,619.481L555.218,588.177L554.688,587.615C553.647,586.492 552.909,585.826 552.472,585.618C551.868,585.327 551.088,585.181 550.131,585.181L548.04,585.181L548.04,582.84Z" style="fill:rgb(27,27,27);fill-rule:nonzero;"/>
                        <path d="M619.823,581.873L621.914,581.873L638.487,624.1C639.153,625.806 640.515,626.659 642.575,626.659L644.011,626.659L644.011,629L625.597,629L625.597,626.659L627.064,626.659C628.978,626.659 630.33,626.451 631.121,626.035C631.662,625.744 631.933,625.296 631.933,624.693C631.933,624.339 631.86,623.965 631.714,623.569L627.875,613.77L609.649,613.77L607.495,619.387C606.933,620.885 606.652,622.071 606.652,622.945C606.652,623.965 607.121,624.839 608.057,625.567C609.014,626.295 610.398,626.659 612.208,626.659L613.768,626.659L613.768,629L597.04,629L597.04,626.659C598.829,626.659 600.244,626.274 601.284,625.504C602.325,624.714 603.282,623.226 604.156,621.041L619.823,581.873ZM618.918,590.768L610.647,611.335L626.97,611.335L618.918,590.768Z" style="fill:rgb(27,27,27);fill-rule:nonzero;"/>
                        <path d="M646.289,582.84L657.306,582.84L685.146,619.106L685.146,592.859C685.146,590.216 684.542,588.261 683.336,586.991C682.233,585.826 680.589,585.223 678.404,585.181L678.404,582.84L694.54,582.84L694.54,585.181C692.896,585.181 691.669,585.41 690.857,585.868C690.046,586.325 689.338,587.158 688.735,588.365C688.131,589.571 687.83,590.893 687.83,592.328L687.83,629L684.896,629L656.089,591.267L656.089,619.106C656.089,621.624 656.724,623.507 657.993,624.755C659.262,625.983 661.228,626.618 663.892,626.659L663.892,629L646.289,629L646.289,626.659C648.495,626.576 650.242,625.858 651.532,624.506C652.823,623.133 653.468,621.458 653.468,619.481L653.468,588.177L652.937,587.615C651.897,586.492 651.158,585.826 650.721,585.618C650.118,585.327 649.337,585.181 648.38,585.181L646.289,585.181L646.289,582.84Z" style="fill:rgb(27,27,27);fill-rule:nonzero;"/>
                        <path d="M698.566,582.84L736.018,582.84L736.923,600.287L734.77,600.287C733.355,590.029 729.651,584.9 723.659,584.9C722.452,584.9 721.62,585.108 721.162,585.524C720.725,585.941 720.507,586.627 720.507,587.584L720.507,624.475C720.507,625.224 720.725,625.775 721.162,626.129C721.599,626.482 722.317,626.659 723.316,626.659L727.966,626.659L727.966,629L706.525,629L706.525,626.659L711.83,626.659C712.538,626.659 713.079,626.482 713.453,626.129C713.828,625.775 714.015,625.307 714.015,624.724L714.015,587.303C714.015,586.513 713.776,585.92 713.297,585.524C712.819,585.108 712.049,584.9 710.988,584.9C707.971,584.9 705.453,586.325 703.435,589.176C701.77,591.527 700.574,595.231 699.846,600.287L697.567,600.287L698.566,582.84Z" style="fill:rgb(27,27,27);fill-rule:nonzero;"/>
                    </g>
                    <g transform="matrix(2.4896,0,0,2.26581,-855.932,-401.489)">
                        <path d="M390.936,598.393L385.952,602.8C384.202,600.359 382.42,599.139 380.606,599.139C379.723,599.139 379,599.38 378.438,599.862C377.876,600.327 377.595,600.857 377.595,601.451C377.595,602.045 377.796,602.607 378.198,603.137C378.743,603.843 380.389,605.36 383.134,607.688C385.703,609.839 387.26,611.196 387.806,611.758C389.171,613.138 390.134,614.463 390.696,615.731C391.274,616.983 391.563,618.356 391.563,619.849C391.563,622.755 390.559,625.155 388.552,627.049C386.546,628.944 383.929,629.891 380.702,629.891C378.181,629.891 375.982,629.273 374.104,628.037C372.241,626.801 370.644,624.858 369.312,622.209L374.971,618.79C376.672,621.92 378.631,623.485 380.846,623.485C382.002,623.485 382.974,623.148 383.76,622.474C384.547,621.8 384.94,621.021 384.94,620.138C384.94,619.335 384.643,618.533 384.049,617.73C383.455,616.927 382.147,615.699 380.124,614.046C376.271,610.899 373.783,608.475 372.659,606.773C371.535,605.055 370.973,603.345 370.973,601.644C370.973,599.187 371.904,597.084 373.767,595.334C375.645,593.568 377.957,592.685 380.702,592.685C382.468,592.685 384.146,593.095 385.735,593.914C387.34,594.732 389.074,596.225 390.936,598.393Z" style="fill:rgb(27,27,27);fill-rule:nonzero;"/>
                        <path d="M411.85,593.577L431.187,593.577L431.187,600.175L418.544,600.175L418.544,606.58L431.187,606.58L431.187,613.058L418.544,613.058L418.544,622.378L431.187,622.378L431.187,629L411.85,629L411.85,593.577Z" style="fill:rgb(27,27,27);fill-rule:nonzero;"/>
                        <path d="M483.839,599.814L479.119,604.317C475.908,600.929 472.296,599.236 468.283,599.236C464.895,599.236 462.037,600.391 459.71,602.703C457.398,605.015 456.242,607.865 456.242,611.252C456.242,613.612 456.756,615.707 457.783,617.537C458.811,619.368 460.263,620.804 462.142,621.848C464.02,622.891 466.107,623.413 468.403,623.413C470.362,623.413 472.152,623.052 473.773,622.329C475.395,621.591 477.177,620.259 479.119,618.332L483.695,623.1C481.078,625.653 478.605,627.427 476.277,628.422C473.95,629.401 471.293,629.891 468.307,629.891C462.8,629.891 458.289,628.149 454.773,624.665C451.273,621.166 449.523,616.686 449.523,611.228C449.523,607.696 450.318,604.558 451.907,601.812C453.513,599.067 455.8,596.86 458.77,595.19C461.757,593.52 464.967,592.685 468.403,592.685C471.325,592.685 474.134,593.304 476.831,594.54C479.545,595.776 481.88,597.534 483.839,599.814Z" style="fill:rgb(27,27,27);fill-rule:nonzero;"/>
                        <path d="M503.307,593.577L510.074,593.577L510.074,616.502C510.074,618.476 510.243,619.873 510.58,620.692C510.933,621.511 511.503,622.169 512.29,622.667C513.092,623.148 514.055,623.389 515.179,623.389C516.367,623.389 517.387,623.116 518.238,622.57C519.105,622.024 519.699,621.334 520.02,620.499C520.357,619.648 520.525,618.035 520.525,615.659L520.525,593.577L527.292,593.577L527.292,614.696C527.292,618.26 527.091,620.732 526.69,622.113C526.289,623.493 525.518,624.826 524.378,626.11C523.255,627.395 521.954,628.35 520.477,628.976C519,629.586 517.282,629.891 515.324,629.891C512.755,629.891 510.516,629.305 508.605,628.133C506.711,626.945 505.354,625.468 504.535,623.702C503.717,621.92 503.307,618.918 503.307,614.696L503.307,593.577Z" style="fill:rgb(27,27,27);fill-rule:nonzero;"/>
                        <path d="M549.385,593.577L556.537,593.577C560.455,593.577 563.24,593.93 564.894,594.636C566.563,595.326 567.904,596.482 568.915,598.104C569.927,599.725 570.432,601.644 570.432,603.859C570.432,606.187 569.87,608.138 568.747,609.711C567.639,611.268 565.961,612.448 563.714,613.251L572.094,629L564.725,629L556.754,613.997L556.128,613.997L556.128,629L549.385,629L549.385,593.577ZM556.128,607.423L558.247,607.423C560.398,607.423 561.875,607.142 562.678,606.58C563.497,606.018 563.906,605.087 563.906,603.787C563.906,603.016 563.706,602.35 563.304,601.788C562.903,601.21 562.365,600.801 561.691,600.56C561.016,600.303 559.78,600.175 557.982,600.175L556.128,600.175L556.128,607.423Z" style="fill:rgb(27,27,27);fill-rule:nonzero;"/>
                        <rect x="590.864" y="593.577" width="6.695" height="35.423" style="fill:rgb(27,27,27);"/>
                        <path d="M615.461,593.577L635.039,593.577L635.039,600.223L628.586,600.223L628.586,629L621.746,629L621.746,600.223L615.461,600.223L615.461,593.577Z" style="fill:rgb(27,27,27);fill-rule:nonzero;"/>
                        <path d="M650.944,593.577L658.192,593.577L664.79,606.291L671.34,593.577L678.492,593.577L668.138,613.66L668.138,629L661.347,629L661.347,613.66L650.944,593.577Z" style="fill:rgb(27,27,27);fill-rule:nonzero;"/>
                        <path d="M744.039,598.393L739.054,602.8C737.304,600.359 735.522,599.139 733.708,599.139C732.825,599.139 732.102,599.38 731.541,599.862C730.979,600.327 730.698,600.857 730.698,601.451C730.698,602.045 730.898,602.607 731.3,603.137C731.846,603.843 733.491,605.36 736.236,607.688C738.805,609.839 740.362,611.196 740.908,611.758C742.273,613.138 743.236,614.463 743.798,615.731C744.376,616.983 744.665,618.356 744.665,619.849C744.665,622.755 743.661,625.155 741.655,627.049C739.648,628.944 737.031,629.891 733.804,629.891C731.284,629.891 729.084,629.273 727.206,628.037C725.344,626.801 723.746,624.858 722.414,622.209L728.073,618.79C729.775,621.92 731.733,623.485 733.949,623.485C735.105,623.485 736.076,623.148 736.862,622.474C737.649,621.8 738.042,621.021 738.042,620.138C738.042,619.335 737.745,618.533 737.151,617.73C736.557,616.927 735.249,615.699 733.226,614.046C729.373,610.899 726.885,608.475 725.761,606.773C724.637,605.055 724.075,603.345 724.075,601.644C724.075,599.187 725.006,597.084 726.869,595.334C728.747,593.568 731.059,592.685 733.804,592.685C735.57,592.685 737.248,593.095 738.837,593.914C740.443,594.732 742.176,596.225 744.039,598.393Z" style="fill:rgb(27,27,27);fill-rule:nonzero;"/>
                        <path d="M781.664,592.685C786.673,592.685 790.976,594.5 794.572,598.128C798.184,601.756 799.99,606.179 799.99,611.397C799.99,616.566 798.208,620.941 794.644,624.521C791.096,628.101 786.785,629.891 781.712,629.891C776.398,629.891 771.984,628.053 768.468,624.376C764.952,620.7 763.194,616.333 763.194,611.276C763.194,607.889 764.013,604.774 765.65,601.933C767.288,599.091 769.535,596.844 772.393,595.19C775.267,593.52 778.357,592.685 781.664,592.685ZM781.592,599.284C778.317,599.284 775.564,600.424 773.332,602.703C771.101,604.983 769.985,607.881 769.985,611.397C769.985,615.314 771.39,618.412 774.199,620.692C776.382,622.474 778.887,623.365 781.712,623.365C784.907,623.365 787.628,622.209 789.876,619.897C792.123,617.585 793.247,614.736 793.247,611.348C793.247,607.977 792.115,605.127 789.852,602.8C787.588,600.456 784.835,599.284 781.592,599.284Z" style="fill:rgb(27,27,27);fill-rule:nonzero;"/>
                        <path d="M820.157,593.577L826.899,593.577L826.899,622.57L836.724,622.57L836.724,629L820.157,629L820.157,593.577Z" style="fill:rgb(27,27,27);fill-rule:nonzero;"/>
                        <path d="M855.422,593.577L862.189,593.577L862.189,616.502C862.189,618.476 862.358,619.873 862.695,620.692C863.048,621.511 863.618,622.169 864.404,622.667C865.207,623.148 866.17,623.389 867.294,623.389C868.482,623.389 869.502,623.116 870.352,622.57C871.219,622.024 871.813,621.334 872.134,620.499C872.472,619.648 872.64,618.035 872.64,615.659L872.64,593.577L879.407,593.577L879.407,614.696C879.407,618.26 879.206,620.732 878.805,622.113C878.404,623.493 877.633,624.826 876.493,626.11C875.369,627.395 874.069,628.35 872.592,628.976C871.115,629.586 869.397,629.891 867.439,629.891C864.87,629.891 862.63,629.305 860.72,628.133C858.826,626.945 857.469,625.468 856.65,623.702C855.831,621.92 855.422,618.918 855.422,614.696L855.422,593.577Z" style="fill:rgb(27,27,27);fill-rule:nonzero;"/>
                        <path d="M897.551,593.577L917.129,593.577L917.129,600.223L910.675,600.223L910.675,629L903.836,629L903.836,600.223L897.551,600.223L897.551,593.577Z" style="fill:rgb(27,27,27);fill-rule:nonzero;"/>
                        <rect x="935.08" y="593.577" width="6.695" height="35.423" style="fill:rgb(27,27,27);"/>
                        <path d="M979.906,592.685C984.915,592.685 989.217,594.5 992.813,598.128C996.425,601.756 998.232,606.179 998.232,611.397C998.232,616.566 996.45,620.941 992.886,624.521C989.338,628.101 985.027,629.891 979.954,629.891C974.64,629.891 970.225,628.053 966.709,624.376C963.193,620.7 961.435,616.333 961.435,611.276C961.435,607.889 962.254,604.774 963.892,601.933C965.529,599.091 967.777,596.844 970.634,595.19C973.508,593.52 976.599,592.685 979.906,592.685ZM979.833,599.284C976.558,599.284 973.805,600.424 971.574,602.703C969.342,604.983 968.226,607.881 968.226,611.397C968.226,615.314 969.631,618.412 972.441,620.692C974.624,622.474 977.128,623.365 979.954,623.365C983.149,623.365 985.87,622.209 988.117,619.897C990.365,617.585 991.489,614.736 991.489,611.348C991.489,607.977 990.357,605.127 988.093,602.8C985.83,600.456 983.076,599.284 979.833,599.284Z" style="fill:rgb(27,27,27);fill-rule:nonzero;"/>
                        <path d="M1018.42,593.577L1024.88,593.577L1040.07,616.887L1040.07,593.577L1046.81,593.577L1046.81,629L1040.34,629L1025.16,605.762L1025.16,629L1018.42,629L1018.42,593.577Z" style="fill:rgb(27,27,27);fill-rule:nonzero;"/>
                        <path d="M1087.26,598.393L1082.27,602.8C1080.52,600.359 1078.74,599.139 1076.93,599.139C1076.04,599.139 1075.32,599.38 1074.76,599.862C1074.2,600.327 1073.92,600.857 1073.92,601.451C1073.92,602.045 1074.12,602.607 1074.52,603.137C1075.06,603.843 1076.71,605.36 1079.45,607.688C1082.02,609.839 1083.58,611.196 1084.13,611.758C1085.49,613.138 1086.45,614.463 1087.02,615.731C1087.59,616.983 1087.88,618.356 1087.88,619.849C1087.88,622.755 1086.88,625.155 1084.87,627.049C1082.87,628.944 1080.25,629.891 1077.02,629.891C1074.5,629.891 1072.3,629.273 1070.42,628.037C1068.56,626.801 1066.96,624.858 1065.63,622.209L1071.29,618.79C1072.99,621.92 1074.95,623.485 1077.17,623.485C1078.32,623.485 1079.29,623.148 1080.08,622.474C1080.87,621.8 1081.26,621.021 1081.26,620.138C1081.26,619.335 1080.96,618.533 1080.37,617.73C1079.78,616.927 1078.47,615.699 1076.44,614.046C1072.59,610.899 1070.1,608.475 1068.98,606.773C1067.86,605.055 1067.29,603.345 1067.29,601.644C1067.29,599.187 1068.22,597.084 1070.09,595.334C1071.96,593.568 1074.28,592.685 1077.02,592.685C1078.79,592.685 1080.47,593.095 1082.06,593.914C1083.66,594.732 1085.39,596.225 1087.26,598.393Z" style="fill:rgb(27,27,27);fill-rule:nonzero;"/>
                    </g>
                    <g transform="matrix(1.01884,0,0,0.834628,-26041.1,-14018.6)">
                        <path d="M26006.3,17312.6C25817.7,17420 25816.2,17416.8 25629,17527.4C25628.2,17527.9 25623.5,17530.6 25617.4,17528.6C25615.6,17528 25613.8,17526.9 25612.3,17525.6C25611.5,17524.9 25607.3,17521.1 25606.7,17514C25606.1,17507.2 25609.5,17502.6 25610,17501.8C25611.3,17500.1 25613,17498.8 25614.7,17497.5C25615.8,17496.7 25617,17496.1 25618.2,17495.4C25692.5,17450.3 25767,17405.6 25841.1,17360.1C25893.8,17327.7 25946.2,17294.3 25998.7,17261.5C25999.8,17260.9 26000.9,17260.2 26002,17259.7C26011.3,17255.6 26019,17259.8 26020.3,17260.5C26021.5,17261.2 26022.6,17261.9 26023.7,17262.8C26064.4,17297 26104.8,17331.6 26145.5,17365.9C26195.4,17288.2 26244.6,17210.1 26294.5,17132.4C26325.4,17084.2 26356.6,17036.2 26387.9,16988.3C26402.8,16965.6 26417.9,16943 26433,16920.4C26442,16906.9 26451,16893.4 26460.2,16880.1C26461.7,16878 26463.3,16876 26465.1,16874.1C26467.1,16871.9 26479.3,16859.2 26498.6,16861.5C26500.3,16861.7 26509.7,16862.9 26518.8,16870C26520.8,16871.6 26522.7,16873.4 26524.4,16875.2C26532.4,16883.9 26540.3,16892.8 26548.1,16901.7C26567.6,16923.9 26587.2,16946 26606.4,16968.4C26672.8,17045.8 26738.6,17123.8 26805,17201.2C26834.3,17179.3 26863.3,17156.9 26892.6,17135C26895.9,17132.5 26899.6,17131.4 26900.3,17131.2C26910.7,17128.1 26918.6,17132.9 26920,17133.8C26921.2,17134.5 26922.3,17135.3 26923.3,17136.2C26955.6,17161.9 26987.6,17188 27019.9,17213.5C27106.1,17281.5 27192.3,17349.4 27278.8,17416.7C27287.4,17423.4 27303.4,17435.8 27386.3,17498.4C27387,17499 27391.5,17502.4 27392.7,17509.3C27393,17511.4 27393,17513.6 27392.7,17515.8C27392.5,17516.8 27391.4,17522.7 27386,17526.6C27380.9,17530.4 27375.7,17529.2 27374.8,17529C27372.8,17528.6 27371,17527.5 27369.2,17526.5C27368.2,17525.9 27367.3,17525 27366.3,17524.3C27333.7,17500.1 27301.4,17475.3 27268.5,17451.6C27149.2,17365.9 27028.9,17281.8 26909.5,17196C26879.6,17221.9 26849.8,17248.1 26819.9,17274C26818.6,17275.1 26817.3,17276.1 26815.9,17277C26814.3,17278 26804.8,17284.1 26792.3,17280.3C26784.7,17278.1 26780,17273.3 26779.1,17272.4C26759.4,17252.3 26739.8,17232.1 26720.2,17211.8C26668.1,17157.7 26612.3,17107.7 26564.1,17049.2C26556.1,17039.5 26546.9,17028.4 26537.8,17017.5C26527.9,17005.6 26513.7,16999.5 26499.2,17000.8C26484.8,17002.1 26471.6,17010.8 26463.7,17024.4C26455.7,17038.1 26447.3,17052.4 26439.9,17064.7C26405.8,17121.2 26363.6,17171.2 26325.3,17224.3C26286,17278.7 26246.5,17332.8 26207,17387C26196.1,17401.9 26185.3,17416.9 26174.3,17431.6C26173.6,17432.6 26169.8,17437.7 26162.8,17440.8C26151.4,17445.8 26142,17441.1 26140.4,17440.3C26139,17439.7 26137.7,17438.8 26136.5,17437.9C26135.3,17437 26134.1,17436 26133,17434.9C26090.7,17394.2 26048.6,17353.3 26006.3,17312.6Z" style="fill:rgb(201,201,201);"/>
                    </g>
                </g>
            </g>
        </g>
    </g>
</svg>
