<?xml version="1.0" encoding="UTF-8" standalone="no"?>
<!DOCTYPE svg PUBLIC "-//W3C//DTD SVG 1.1//EN" "http://www.w3.org/Graphics/SVG/1.1/DTD/svg11.dtd">
<svg width="100%" height="100%" viewBox="0 0 801 318" version="1.1" xmlns="http://www.w3.org/2000/svg" xmlns:xlink="http://www.w3.org/1999/xlink" xml:space="preserve" xmlns:serif="http://www.serif.com/" style="fill-rule:evenodd;clip-rule:evenodd;stroke-linejoin:round;stroke-miterlimit:2;">
    <g>
        <path d="M488.13,42.19L488.13,56.26C488.13,56.26 469.03,85.15 457.89,110.62C440.38,120.17 414.92,131.31 411.74,145.63C416.51,153.59 418.11,153.59 424.47,164.73C416.51,164.73 411.74,167.69 411.74,167.69C411.74,167.69 406.97,156.77 400.6,153.59C394.23,150.41 392.64,139.27 392.64,139.27L363.99,136.09C363.99,136.09 324.08,152.64 319.3,152.64L300.2,152.64L303.38,146.27C303.38,146.27 279.51,154.23 268.37,154.23L268.37,149.47C268.37,149.47 258.82,152.64 246.09,152.64C254.05,146.27 314.65,109.04 327.38,101.08C328.97,93.12 328.97,91.53 328.97,91.53C328.97,91.53 348.07,70.84 368.76,64.48C389.45,58.11 411.73,50.16 416.5,45.38C421.27,40.6 430.82,17.51 441.96,11.14C453.1,4.77 457.87,0 465.83,0C473.79,0 484.93,7.96 492.88,9.55C500.84,11.14 523.12,19.1 526.3,27.06C513.57,27.06 496.06,29.47 488.11,42.2L488.13,42.19Z" style="fill:rgb(27,27,27);fill-rule:nonzero;"/>
        <path d="M424.47,164.74C424.47,164.74 446.75,169.51 449.93,177.47C445.16,175.88 421.28,169.51 410.14,172.7C411.73,171.11 411.73,167.71 411.73,167.71L416.5,163.15L424.46,164.74L424.47,164.74Z" style="fill:rgb(27,27,27);fill-rule:nonzero;"/>
    </g>
    <path d="M137,307.6C138.32,307.6 269,247.8 269,247.8C269,247.8 298.15,252.11 300.36,251.67C302.57,251.23 348.58,216 348.58,216L347.92,206.75C347.92,206.75 384.55,171.52 407.01,171.52C429.47,171.52 466.95,174.95 468.28,179.8C469.61,184.65 492.32,225 502.01,222.8C511.7,220.6 532.28,217.8 532.28,217.8L558.01,250.8L554.28,258.8L577.01,251.8L634.68,290.8L681.01,307.6L137,307.6Z" style="fill:rgb(27,27,27);fill-rule:nonzero;"/>
    <path d="M681,307.6L801,317.8L0,317.8L137,307.6L403,276.8L681,307.6Z" style="fill:rgb(27,27,27);fill-rule:nonzero;"/>
</svg>
