<?xml version="1.0" encoding="UTF-8" standalone="no"?>
<!DOCTYPE svg PUBLIC "-//W3C//DTD SVG 1.1//EN" "http://www.w3.org/Graphics/SVG/1.1/DTD/svg11.dtd">
<svg width="100%" height="100%" viewBox="0 0 1000 190" version="1.1" xmlns="http://www.w3.org/2000/svg" xmlns:xlink="http://www.w3.org/1999/xlink" xml:space="preserve" xmlns:serif="http://www.serif.com/" style="fill-rule:evenodd;clip-rule:evenodd;stroke-linejoin:round;stroke-miterlimit:2;">
    <g transform="matrix(1,0,0,1,-1842.02,-589.082)">
        <g id="Standard---Light-Mode" serif:id="Standard - Light Mode" transform="matrix(0.390625,0,0,0.131944,1842.02,589.082)">
            <rect x="0" y="0" width="2560" height="1440" style="fill:none;"/>
            <g transform="matrix(2.56,0,0,7.57895,64.0003,227.367)">
                <g id="Layer-1" serif:id="Layer 1">
                    <g>
                        <g transform="matrix(1,0,0,1,357.604,51.6701)">
                            <path d="M0,27.359L10.944,-6.327L21.887,27.359L0,27.359ZM-97.248,5.472L-112.296,5.472L-112.296,-15.048L-97.248,-15.048C-90.067,-15.048 -86.305,-10.944 -86.305,-4.788C-86.305,2.394 -90.067,5.472 -97.248,5.472M-10.772,-46.853L-52.162,66.289L-73.993,27.872C-56.723,22.229 -47.83,8.72 -47.83,-7.182C-47.83,-29.411 -63.391,-46.853 -93.829,-46.853L-126.325,-46.853C-127.229,-42.726 -129.59,-36.699 -135.63,-30.262C-137.577,-28.188 -139.724,-26.144 -142.209,-24.313C-142.88,-23.819 -144.94,-22.403 -144.94,-22.403L-123.147,-22.403C-123.147,-22.403 -124.121,-11.675 -131.637,-4.538C-135.008,-1.337 -140.845,2.545 -150.257,2.972L-150.257,74.212L-112.296,74.212L-112.296,30.779L-112.125,30.779L-89.382,74.212L-15.218,74.212L-9.233,55.915L31.121,55.915L37.106,74.212L77.119,74.212L33.003,-46.853L-10.772,-46.853Z" style="fill:rgb(27,27,27);fill-rule:nonzero;"/>
                        </g>
                        <g transform="matrix(1,0,0,1,481.297,42.6068)">
                            <path d="M0,45.485L-24.965,-37.79L-65.32,-37.79L-24.623,83.275L24.452,83.275L65.149,-37.79L24.795,-37.79L0,45.485Z" style="fill:rgb(27,27,27);fill-rule:nonzero;"/>
                        </g>
                        <g transform="matrix(1,0,0,1,554.998,4.8168)">
                            <path d="M0,121.065L80.709,121.065L80.709,90.799L37.961,90.799L37.961,73.699L75.58,73.699L75.58,45.143L37.961,45.143L37.961,30.266L80.709,30.266L80.709,0L0,0L0,121.065Z" style="fill:rgb(27,27,27);fill-rule:nonzero;"/>
                        </g>
                        <g transform="matrix(1,0,0,1,728.216,63.9814)">
                            <path d="M0,2.736L-40.184,-59.164L-78.145,-59.164L-78.145,61.9L-40.184,61.9L-40.184,1.026L0,61.9L37.961,61.9L37.961,-59.164L0,-59.164L0,2.736Z" style="fill:rgb(27,27,27);fill-rule:nonzero;"/>
                        </g>
                        <g transform="matrix(1,0,0,1,839.023,91.6832)">
                            <path d="M0,-53.009C8.549,-53.009 15.731,-48.392 19.322,-40.355L59.335,-40.355C54.376,-68.912 32.66,-88.063 0.684,-88.063C-36.423,-88.063 -59.165,-62.585 -59.165,-26.505C-59.165,9.575 -36.423,35.054 0.684,35.054C32.66,35.054 54.376,15.902 59.335,-12.654L19.322,-12.654C15.731,-4.617 8.549,-0.001 0,-0.001C-12.825,-0.001 -20.691,-10.431 -20.691,-26.505C-20.691,-42.578 -12.825,-53.009 0,-53.009" style="fill:rgb(27,27,27);fill-rule:nonzero;"/>
                        </g>
                        <g transform="matrix(1,0,0,1,0,-17.465)">
                            <rect x="912.039" y="22.282" width="37.961" height="121.065" style="fill:rgb(27,27,27);"/>
                        </g>
                        <g transform="matrix(1,0,0,1,59.2961,6.75)">
                            <path d="M0,16.75C0.109,14.051 0.254,11.625 0.409,9.554L105.615,9.554C105.772,11.623 105.918,14.05 106.028,16.748C109.358,16.242 112.52,15.664 115.518,15.027C115.088,5.778 114.242,0 114.242,0L-8.226,0C-8.226,0 -9.072,5.778 -9.501,15.027C-6.5,15.665 -3.335,16.243 0,16.75" style="fill:rgb(27,27,27);fill-rule:nonzero;"/>
                        </g>
                        <g transform="matrix(1,0,0,1,162.99,146.522)">
                            <path d="M0,-82.234C-0.075,-81.778 -0.142,-81.326 -0.221,-80.868C-3.226,-63.583 -8.609,-48.851 -16.222,-37.082C-20.617,-30.287 -25.823,-24.412 -31.693,-19.621C-37.305,-15.04 -43.682,-11.324 -50.686,-8.548C-57.652,-11.309 -63.998,-15 -69.587,-19.547C-75.44,-24.308 -80.634,-30.143 -85.024,-36.889C-92.637,-48.588 -98.036,-63.235 -101.072,-80.423C-101.179,-81.029 -101.27,-81.63 -101.37,-82.234C-105.248,-82.415 -108.554,-83.047 -111.301,-83.876C-106.437,-50.763 -91.601,-12.575 -50.686,1.642C-9.771,-12.575 5.066,-50.763 9.929,-83.876C7.183,-83.047 3.878,-82.415 0,-82.234" style="fill:rgb(27,27,27);fill-rule:nonzero;"/>
                        </g>
                        <g transform="matrix(1,0,0,1,114.324,31.4092)">
                            <path d="M0,18.867L-2.019,23.265L-4.039,18.867C-4.039,18.867 -5.777,16.299 -2.019,14.809C1.738,16.299 0,18.867 0,18.867M110.276,-31.409C110.276,-31.409 95.128,-12.15 50.297,-5.6C5.466,0.949 4.564,5.072 4.564,5.072C5.512,6.737 6.3,10.34 6.635,12.037C6.743,12.583 6.488,13.137 6.004,13.413L3.291,14.956L3.631,12.853L-7.67,12.853L-7.33,14.956L-10.043,13.413C-10.527,13.137 -10.782,12.583 -10.674,12.037C-10.339,10.34 -9.551,6.737 -8.603,5.072C-8.603,5.072 -9.505,0.949 -54.336,-5.6C-99.167,-12.15 -114.315,-31.409 -114.315,-31.409C-114.315,-31.409 -116.686,-1.672 -44.105,11.153C-66.379,9.766 -92.301,5.413 -92.301,5.413C-92.301,5.413 -82.936,22.457 -37.803,19.493C-50.969,22.95 -71.601,24.149 -71.601,24.149C-71.601,24.149 -59.438,36.149 -32.688,27.837C-37.015,30.241 -48.28,36.416 -48.28,36.416C-48.28,36.416 -39.394,45.005 -21.468,33.336C-25.198,38.981 -32.049,44.695 -32.049,44.695C-32.049,44.695 -23.067,50.211 -10.094,37.693L-2.019,50.276L6.055,37.693C19.028,50.211 28.01,44.695 28.01,44.695C28.01,44.695 21.159,38.981 17.429,33.336C35.355,45.005 44.241,36.416 44.241,36.416C44.241,36.416 32.976,30.241 28.649,27.837C55.399,36.149 67.562,24.149 67.562,24.149C67.562,24.149 46.93,22.95 33.764,19.493C78.897,22.457 88.262,5.413 88.262,5.413C88.262,5.413 62.34,9.766 40.066,11.153C112.647,-1.672 110.276,-31.409 110.276,-31.409" style="fill:rgb(199,199,199);fill-rule:nonzero;"/>
                        </g>
                        <g transform="matrix(1,0,0,1,114.324,67.8902)">
                            <path d="M0,-17.614L-2.019,-13.216L-4.039,-17.614C-4.039,-17.614 -5.776,-20.182 -2.019,-21.672C1.738,-20.182 0,-17.614 0,-17.614M4.564,-31.409C5.512,-29.744 6.3,-26.141 6.635,-24.444C6.743,-23.898 6.488,-23.344 6.005,-23.068L3.291,-21.525L3.631,-23.627L-7.67,-23.627L-7.33,-21.525L-10.043,-23.068C-10.527,-23.344 -10.782,-23.898 -10.674,-24.444C-10.339,-26.141 -9.551,-29.744 -8.603,-31.409L-114.315,-31.409C-114.315,-31.409 -110.382,-19.011 -92.318,-20.552C-74.255,-22.092 -49.463,-21.728 -37.803,-16.987C-42.591,-16.363 -72.002,-14.994 -72.002,-14.994C-72.002,-14.994 -56.185,-0.161 -32.688,-8.644C-33.921,-5.36 -35.25,-2.33 -45.806,3.241C-41.352,5.76 -35.37,8.524 -21.468,-3.145C-21.386,-1.124 -20.953,1.477 -30.824,12.85C-25.985,12.694 -18.168,12.189 -10.094,1.212L-2.019,13.795L6.055,1.212C14.13,12.189 21.947,12.694 26.786,12.85C16.914,1.477 17.347,-1.124 17.429,-3.145C31.331,8.524 37.313,5.76 41.767,3.241C31.211,-2.33 29.883,-5.36 28.65,-8.644C52.146,-0.161 67.963,-14.994 67.963,-14.994C67.963,-14.994 38.552,-16.363 33.764,-16.987C45.424,-21.728 70.216,-22.092 88.279,-20.552C106.343,-19.011 110.276,-31.409 110.276,-31.409L4.564,-31.409Z" style="fill:rgb(27,27,27);fill-rule:nonzero;"/>
                        </g>
                        <g transform="matrix(1,0,0,1,112.304,125.249)">
                            <path d="M0,-38.816L-1.574,-40.693L-3.509,-1.996L0,1.877L0,1.851L0,1.877L3.509,-1.996L1.574,-40.693L0,-38.816Z" style="fill:rgb(27,27,27);fill-rule:nonzero;"/>
                        </g>
                        <g transform="matrix(1,0,0,1,122.441,106.663)">
                            <path d="M0,-31.391L-1.961,-29.265L8.501,0L13.15,-5.098C14.328,-6.389 14.499,-8.307 13.57,-9.786L0,-31.391Z" style="fill:rgb(27,27,27);fill-rule:nonzero;"/>
                        </g>
                        <g transform="matrix(1,0,0,1,117.227,120.787)">
                            <path d="M0,-39.862L-0.337,-39.496C-0.809,-38.985 -1.056,-38.305 -1.021,-37.609L0.861,0L7.334,-7.144C9.26,-9.27 9.859,-12.283 8.894,-14.983L0,-39.862Z" style="fill:rgb(27,27,27);fill-rule:nonzero;"/>
                        </g>
                        <g transform="matrix(1,0,0,1,102.167,106.663)">
                            <path d="M0,-31.391L-13.57,-9.786C-14.499,-8.307 -14.328,-6.389 -13.15,-5.098L-8.501,0L1.961,-29.265L0,-31.391Z" style="fill:rgb(27,27,27);fill-rule:nonzero;"/>
                        </g>
                        <g transform="matrix(1,0,0,1,107.381,120.787)">
                            <path d="M0,-39.862L-8.894,-14.983C-9.859,-12.283 -9.26,-9.27 -7.334,-7.144L-0.861,0L1.021,-37.609C1.056,-38.305 0.809,-38.985 0.337,-39.496L0,-39.862Z" style="fill:rgb(27,27,27);fill-rule:nonzero;"/>
                        </g>
                    </g>
                </g>
            </g>
        </g>
        <g id="Layer-11" serif:id="Layer 1">
        </g>
    </g>
</svg>
