<?xml version="1.0" encoding="UTF-8" standalone="no"?>
<!DOCTYPE svg PUBLIC "-//W3C//DTD SVG 1.1//EN" "http://www.w3.org/Graphics/SVG/1.1/DTD/svg11.dtd">
<svg width="100%" height="100%" viewBox="0 0 120 120" version="1.1" xmlns="http://www.w3.org/2000/svg" xmlns:xlink="http://www.w3.org/1999/xlink" xml:space="preserve" xmlns:serif="http://www.serif.com/" style="fill-rule:evenodd;clip-rule:evenodd;stroke-linejoin:round;stroke-miterlimit:2;">
    <path d="M107.27,37.66C107.1,35.62 106.79,33.42 106.15,31.45C105.9,24.19 102.84,17.01 97.67,12.02C98.76,12.96 99.86,13.9 100.95,14.84C98.79,12.04 96.32,9.5 93.67,7.19C90.79,4.69 87.62,2.41 84.01,1.29C80.4,0.17 76.26,0.33 73.09,2.44C72.01,3.16 71.03,4.15 70.47,5.32C69.48,5.22 68.32,5.39 67.39,5.43C64.97,5.54 62.56,5.86 60.19,6.36C58.87,6.64 57.57,6.99 56.29,7.38C54.57,7.92 52.83,8.59 51.53,9.86C50.35,11.02 49.61,12.63 49.5,14.3C49.9,13.76 50.38,13.29 50.9,12.89C50.94,12.95 50.99,13.01 51.06,13.07C51.63,13.59 52.85,13.8 53.57,13.99C54.46,14.23 55.36,14.39 56.26,14.52C57.29,14.67 58.33,14.77 59.37,14.87C62.35,15.15 65.33,15.44 68.3,15.72C68.9,15.78 69.5,15.83 70.1,15.83C71.54,17.2 72.41,19.2 72.65,21.17C73.03,24.24 72.18,27.32 71.36,30.31C71.29,30.58 71.21,30.86 71.14,31.14C65.83,35.61 60.51,39.81 55.73,45.03C53.29,47.69 50.97,50.5 48.79,53.42C48.1,53.97 47.43,54.59 46.73,55.17C40.95,60.01 35.44,65.2 30.26,70.7C27.36,73.77 24.57,76.94 21.87,80.2C20.76,81.54 19.65,82.93 19.01,84.56C18.79,85.11 18.76,85.95 19.33,86.09C19.61,86.16 19.88,85.99 20.12,85.84C21.12,85.19 22.13,84.54 23.13,83.89C20.74,85.7 18.68,87.88 17.62,90.69C17.97,90.72 18.31,90.71 18.65,90.65C16.12,92.6 13.66,94.65 11.28,96.79C10.79,97.23 10.28,97.71 10.07,98.34C9.86,98.97 10.07,99.81 10.68,100.04C11.15,100.22 11.68,100 12.14,99.79C13.49,99.16 14.84,98.52 16.18,97.89C15.09,98.48 14.14,99.35 13.47,100.41C13.16,100.9 12.93,101.61 13.34,102.01C13.75,102.41 14.41,102.15 14.91,101.88C16.33,101.09 17.76,100.3 19.18,99.52C17.63,100.41 16.4,101.87 15.76,103.57C16.28,104.35 17.45,104.03 18.29,103.63C26.32,99.77 34.35,95.91 42.38,92.05C44.38,91.09 46.39,90.12 48.14,88.74C48.55,88.42 48.94,88.07 49.31,87.69C51.58,88.73 54.15,89.02 56.78,88.94C56.79,89.2 56.8,89.45 56.81,89.67C56.85,90.91 57.04,92.14 57.37,93.33C57.74,94.68 58.3,95.97 59.02,97.16C59.33,97.67 59.72,98.19 60.19,98.55C60.21,98.62 60.23,98.7 60.24,98.77C61.63,103.99 63.01,109.2 64.4,114.42C62.73,113.09 60.46,112.89 58.54,113.8C57.99,113.23 57.07,113.17 56.36,113.51C55.65,113.85 55.14,114.52 54.8,115.24C54.44,115.98 54.25,116.94 54.73,117.6C54.9,116.78 55.38,116.03 56.05,115.54C56.72,115.05 57.48,114.83 58.29,114.93C58.08,115.36 58.17,115.9 58.45,116.28C59.02,117.05 60.11,117.1 61.05,117.09C62.73,117.06 64.39,117.06 65.99,116.54C67.05,117.03 68.14,117.44 69.26,117.77C69.72,117.9 70.18,118.02 70.66,118.01C71.13,117.99 72.26,117.88 72.58,117.52C73.13,117.99 73.53,118.64 73.71,119.36C74.26,118.57 74.29,117.43 73.66,116.7C75.55,116.3 77.51,116.26 79.41,116.57C79.78,116.63 80.15,116.7 80.53,116.68C80.9,116.65 81.29,116.51 81.52,116.21C81.76,115.91 82,115.63 81.75,115.35C81.64,115.33 81.62,115.16 81.69,115.07C81.76,114.98 81.88,114.96 81.99,114.95C83.44,114.8 84.79,115.64 85.96,116.53C85.68,115.55 85.05,114.68 84.2,114.14C84.53,114.06 84.83,113.95 84.97,113.79C85.52,114.26 85.92,114.91 86.1,115.63C86.65,114.84 86.68,113.7 86.05,112.97C87.94,112.57 89.9,112.53 91.8,112.84C92.17,112.9 92.54,112.97 92.92,112.95C93.29,112.92 93.68,112.78 93.91,112.48C94.15,112.18 94.39,111.9 94.14,111.62C94.03,111.6 94.01,111.43 94.08,111.34C94.15,111.25 94.27,111.23 94.38,111.22C95.83,111.07 97.18,111.91 98.35,112.8C98.07,111.82 97.44,110.95 96.59,110.41C95.75,109.87 94.71,109.65 93.72,109.82C93.78,109.81 93.67,109.9 93.65,109.93C92.92,109.16 91.81,108.88 90.76,108.88C89.14,108.88 87.58,109.48 85.99,109.82C84.4,110.16 82.61,110.21 81.29,109.24C80.29,108.51 79.73,107.32 79.24,106.16C77.79,102.69 76.69,99.06 75.96,95.35C76.25,94.93 76.43,94.43 76.61,93.94C77.63,91.1 78.65,88.26 79.38,85.33C79.45,85.06 79.51,84.77 79.56,84.49C80.95,83.96 82.32,83.35 83.64,82.63C87.03,80.8 90.04,78.34 92.71,75.52C92.74,75.5 92.77,75.47 92.79,75.45C98.1,71.14 103.13,66.26 106.42,60.19C108.26,56.79 109.49,53 109.84,49.12C110.13,45.8 109.85,42.06 108.39,39.03C108.19,38.55 107.77,37.95 107.27,37.66ZM73.63,113.59C72.04,113.93 70.25,113.98 68.93,113.01C68.61,112.77 68.33,112.48 68.08,112.17C68.2,112.05 68.33,111.94 68.47,111.84C69.14,111.35 69.9,111.13 70.71,111.23C70.5,111.66 70.59,112.2 70.87,112.58C71.44,113.35 72.53,113.4 73.47,113.39C73.83,113.38 74.18,113.38 74.53,113.37C74.23,113.45 73.93,113.52 73.63,113.59ZM70.83,93.16C71.23,94.13 71.75,95.11 72.57,95.74C72.67,95.82 72.78,95.89 72.89,95.95C74.2,100.87 75.51,105.78 76.81,110.7C75.14,109.37 72.87,109.17 70.95,110.08C70.4,109.51 69.48,109.45 68.77,109.79C68.2,110.07 67.75,110.56 67.42,111.12C67.22,110.73 67.04,110.32 66.87,109.92C65.27,106.09 64.09,102.07 63.38,97.97C63.45,97.89 63.51,97.8 63.57,97.71C64.1,96.89 64.3,95.9 64.49,94.94C64.85,93.15 65.21,91.37 65.57,89.58C65.68,89.02 65.79,88.42 65.8,87.84C67.01,87.64 68.22,87.44 69.42,87.22C69.58,89.27 70.05,91.28 70.83,93.16Z" style="fill:rgb(27,27,27);fill-rule:nonzero;"/>
</svg>
