<?xml version="1.0" encoding="UTF-8" standalone="no"?>
<!DOCTYPE svg PUBLIC "-//W3C//DTD SVG 1.1//EN" "http://www.w3.org/Graphics/SVG/1.1/DTD/svg11.dtd">
<svg width="100%" height="100%" viewBox="0 0 250 90" version="1.1" xmlns="http://www.w3.org/2000/svg" xmlns:xlink="http://www.w3.org/1999/xlink" xml:space="preserve" xmlns:serif="http://www.serif.com/" style="fill-rule:evenodd;clip-rule:evenodd;stroke-linejoin:round;stroke-miterlimit:2;">
    <g transform="matrix(0.331742,0,0,0.331742,24.999956,18.093262)">
        <path d="M54.027,54.072L0,54.072L0,108.143L54.027,162.215L54.027,108.143L108.054,108.143L54.027,54.072L108.054,54.072L108.054,0L0,0L54.027,54.072ZM190.205,125.836L208.244,125.836L208.244,86.936L251.224,86.936L251.224,71.794L208.244,71.794L208.244,47.373L254.437,47.373L254.437,31.872L190.205,31.872L190.205,125.836ZM294.657,58.669C290.276,58.669 286.794,59.658 284.18,61.643C281.57,63.625 279.68,66.569 278.449,70.473L278.27,70.473L278.27,59.24L261.641,59.24L261.641,125.836L278.9,125.836L278.9,88.948C278.9,85.492 279.471,82.641 280.641,80.327C281.809,78.044 283.371,76.331 285.411,75.189C287.454,74.047 289.706,73.477 292.226,73.477C294.813,73.465 297.396,73.584 299.97,73.838L299.97,58.878C299.31,58.848 298.528,58.788 297.629,58.729C296.757,58.669 295.768,58.639 294.657,58.639L294.657,58.669ZM352.615,68.461L352.435,68.461C351.153,66.197 349.441,64.207 347.394,62.602C345.358,61.031 343.061,59.831 340.609,59.057C338.118,58.247 335.418,57.856 332.506,57.856C326.832,57.856 321.82,59.329 317.499,62.244C313.177,65.155 309.784,69.211 307.383,74.409C304.982,79.607 303.751,85.615 303.751,92.463C303.751,99.311 304.952,105.471 307.353,110.696C309.754,115.924 313.117,119.98 317.439,122.864C321.76,125.746 326.832,127.219 332.625,127.219C335.537,127.219 338.237,126.798 340.731,125.928C343.188,125.075 345.474,123.792 347.484,122.141C349.494,120.491 351.115,118.387 352.435,115.864L352.674,115.864L352.674,125.836L369.515,125.836L369.515,59.24L352.615,59.24L352.615,68.461ZM351.264,103.337C349.885,106.401 347.994,108.774 345.533,110.457C343.069,112.14 340.19,112.98 336.857,112.98C333.736,112.98 331.004,112.17 328.662,110.576C326.324,108.983 324.493,106.643 323.17,103.606C321.88,100.572 321.22,96.848 321.22,92.463C321.22,88.078 321.88,84.321 323.17,81.287C324.46,78.253 326.294,75.94 328.662,74.349C331.033,72.756 333.736,71.946 336.857,71.946C340.19,71.946 343.069,72.786 345.533,74.469C347.994,76.152 349.914,78.525 351.264,81.589C352.644,84.653 353.307,88.287 353.307,92.433C353.307,96.579 352.614,100.213 351.264,103.277L351.264,103.337ZM470.515,60.651C467.152,58.818 463.371,57.916 459.169,57.916C455.478,57.916 452.085,58.576 449.024,59.87C446.03,61.11 443.36,63.022 441.22,65.457C439.859,67.009 438.746,68.762 437.92,70.655C436.826,67.318 434.743,64.395 431.947,62.274C428.192,59.359 423.781,57.916 418.71,57.916C415.662,57.898 412.641,58.49 409.825,59.658C407.003,60.8 404.542,62.602 402.409,64.976C400.88,66.688 399.62,68.73 398.599,71.073L398.599,59.24L381.969,59.24L381.969,125.836L399.229,125.836L399.229,86.276C399.229,83.242 399.799,80.686 400.94,78.615C402.081,76.54 403.61,74.95 405.504,73.898C407.416,72.815 409.579,72.256 411.775,72.275C415.228,72.275 418.017,73.327 420.15,75.461C422.279,77.592 423.36,80.447 423.36,83.992L423.36,125.806L440.049,125.806L440.049,85.313C440.049,82.761 440.56,80.477 441.551,78.495C442.49,76.577 443.972,74.978 445.813,73.898C447.644,72.816 449.833,72.245 452.387,72.245C455.627,72.245 458.39,73.237 460.698,75.249C463.01,77.234 464.151,80.357 464.151,84.623L464.151,125.806L481.35,125.806L481.35,81.768C481.35,76.6 480.359,72.245 478.409,68.67C476.458,65.125 473.785,62.423 470.425,60.591L470.515,60.651ZM546.511,67.379C543.664,64.308 540.195,61.881 536.336,60.259C532.376,58.579 527.962,57.736 523.099,57.736C516.798,57.736 511.216,59.24 506.384,62.214C501.519,65.188 497.738,69.331 494.978,74.588C492.215,79.846 490.836,85.854 490.836,92.612C490.836,99.371 492.186,105.319 494.856,110.547C497.558,115.774 501.369,119.89 506.291,122.864C511.216,125.836 517.037,127.339 523.73,127.339C529.013,127.339 533.845,126.377 538.229,124.485C542.611,122.592 546.213,119.98 549.095,116.644C551.949,113.354 553.876,109.363 554.676,105.08L538.737,105.08C538.155,106.838 537.181,108.441 535.888,109.766C534.5,111.177 532.819,112.264 530.963,112.95C528.983,113.7 526.731,114.092 524.21,114.092C520.668,114.092 517.697,113.341 515.236,111.808C512.775,110.307 510.884,108.173 509.594,105.441C508.424,102.975 507.793,100.124 507.674,96.938L555.336,96.938L555.336,92.284C555.336,87.205 554.557,82.548 553.025,78.313C551.496,74.077 549.304,70.443 546.481,67.379L546.511,67.379ZM507.823,85.552C508.092,83.212 508.662,81.078 509.594,79.215C510.884,76.633 512.715,74.618 515.086,73.208C517.458,71.797 520.25,71.103 523.431,71.103C526.612,71.103 529.523,71.797 531.865,73.208C534.233,74.633 536.132,76.722 537.327,79.215C538.259,81.078 538.83,83.212 539.098,85.552L507.823,85.552ZM600.568,58.759C599.699,58.699 598.707,58.669 597.599,58.669C593.215,58.669 589.733,59.658 587.122,61.643C584.512,63.625 582.622,66.569 581.391,70.473L581.209,70.473L581.209,59.24L564.583,59.24L564.583,125.836L581.839,125.836L581.839,88.948C581.839,85.493 582.41,82.641 583.58,80.327C584.721,78.044 586.313,76.331 588.323,75.189C590.333,74.047 592.615,73.477 595.135,73.477C597.722,73.465 600.308,73.584 602.879,73.838L602.879,58.878C602.219,58.848 601.44,58.788 600.538,58.729L600.568,58.759Z" style="fill-rule:nonzero;"/>
    </g>
</svg>
