<?xml version="1.0" encoding="UTF-8" standalone="no"?>
<!DOCTYPE svg PUBLIC "-//W3C//DTD SVG 1.1//EN" "http://www.w3.org/Graphics/SVG/1.1/DTD/svg11.dtd">
<svg width="100%" height="100%" viewBox="0 0 250 90" version="1.1" xmlns="http://www.w3.org/2000/svg" xmlns:xlink="http://www.w3.org/1999/xlink" xml:space="preserve" xmlns:serif="http://www.serif.com/" style="fill-rule:evenodd;clip-rule:evenodd;stroke-linejoin:round;stroke-miterlimit:2;">
    <g transform="matrix(1.80791,0,0,1.80791,23.644068,16.073446)">
        <g transform="matrix(0.143665,0,0,0.143665,24.815752,4.937499)">
            <path d="M44.883,52.446C33.418,43.797 21.813,37.102 21.813,27.338C21.813,21.482 26.983,15.485 34.118,15.485C46.983,15.485 54.53,28.875 61.942,45.61L66.554,45.61L66.554,7.112L34.394,7.112C7.83,7.112 0,23.154 0,35.705C0,52.165 13.565,61.929 28.942,73.365C39.706,81.315 48.795,88.709 48.795,97.218C48.795,106.424 42.501,111.723 34.53,111.723C26,111.723 13.418,100.562 4.606,77.413L0,77.413L0,120.096L36.777,120.096C59.43,120.096 70.754,102.24 71.172,87.876C71.73,71.141 57.33,61.794 44.883,52.446ZM145.002,106.841L145.002,61.788C145.002,42.26 132.837,37.102 115.219,37.102L83.895,37.102L84.036,68.905L89.207,68.905C94.66,55.375 102.49,45.475 110.878,45.475C118.149,45.475 121.366,51.754 121.366,58.308L121.366,64.446C109.619,71.423 78.301,77.279 78.301,98.479C78.301,110.754 86.831,120.935 99.278,120.935C110.043,120.935 117.454,113.958 121.231,105.732C121.931,112.568 126.402,120.096 136.614,120.096L152.696,120.096L152.696,113.958C147.525,113.958 145.008,110.473 145.008,106.847L145.002,106.841ZM120.949,99.864C118.713,103.074 115.213,106.7 111.019,106.7C105.148,106.7 101.372,102.234 101.372,93.31C101.372,83.129 115.072,76.575 120.949,71.693L120.949,99.87L120.949,99.864ZM270.145,28.453C279.092,28.453 284.686,22.174 284.686,14.089C284.686,6.002 279.092,0 270.145,0C261.198,0 255.462,5.997 255.462,14.088C255.462,22.18 261.474,28.453 270.145,28.453ZM409.135,37.102L409.135,43.24C417.947,43.24 420.459,47.84 416.129,60.256L405.641,88.568L392.217,54.118C389.141,47.423 390.817,43.24 397.252,43.24L397.252,37.102L330.557,37.102L330.557,9.207L324.263,9.207C322.446,18.689 312.516,37.102 295.598,37.102L295.598,43.24L306.504,43.24L306.504,100.568C306.504,110.191 309.722,121.07 328.457,121.07L357.54,121.07L357.54,89.548L352.37,89.548C350.269,96.942 345.94,111.723 336.569,111.723C331.399,111.723 330.557,106.002 330.557,101.401L330.557,45.886L357.264,45.886C360.481,45.886 363.834,46.303 365.511,50.211L393.894,120.231C388.441,132.647 379.07,134.595 362.293,129.437L362.293,153.988C366.629,153.988 377.811,154.129 379.77,153.572C390.817,150.362 398.364,128.745 401.441,120.378L425.488,55.521C428.147,48.409 430.382,43.246 434.994,43.246L434.994,37.108L409.129,37.108L409.135,37.102ZM237.703,106.841L237.703,59.276C237.703,44.355 230.574,35.424 216.45,35.424C204.009,35.424 196.803,44.032 191.279,52.041L191.279,37.096L159.396,37.096L159.396,43.234C164.849,43.234 167.226,46.578 167.226,50.486L167.226,106.835C167.226,110.602 164.432,113.947 159.396,113.947L159.396,120.084L199.109,120.084L199.109,113.947C194.073,113.947 191.279,110.602 191.279,106.835L191.279,59.646C194.503,55.374 198.214,50.768 204.42,50.768C210.291,50.768 213.65,55.509 213.65,61.23L213.65,106.841C213.65,110.608 210.856,113.952 205.82,113.952L205.82,120.09L245.533,120.09L245.533,113.952C240.497,113.952 237.703,110.608 237.703,106.841ZM284.127,106.841L284.127,37.102L252.245,37.102L252.245,43.24C257.698,43.24 260.074,46.584 260.074,50.492L260.074,106.841C260.074,110.608 257.28,113.952 252.245,113.952L252.245,120.09L291.957,120.09L291.957,113.952C286.922,113.952 284.127,110.608 284.127,106.841Z" style="fill:rgb(13,14,18);fill-rule:nonzero;"/>
        </g>
    </g>
</svg>
