<?xml version="1.0" encoding="UTF-8" standalone="no"?>
<!DOCTYPE svg PUBLIC "-//W3C//DTD SVG 1.1//EN" "http://www.w3.org/Graphics/SVG/1.1/DTD/svg11.dtd">
<svg width="100%" height="100%" viewBox="0 0 1042 375" version="1.1" xmlns="http://www.w3.org/2000/svg" xmlns:xlink="http://www.w3.org/1999/xlink" xml:space="preserve" xmlns:serif="http://www.serif.com/" style="fill-rule:evenodd;clip-rule:evenodd;stroke-linejoin:round;stroke-miterlimit:2;">
    <g transform="matrix(1,0,0,1,-3515.63,0)">
        <g id="Page-4" serif:id="Page 4" transform="matrix(4.16667,0,0,4.16667,3515.63,0)">
            <rect x="0" y="0" width="250" height="90" style="fill:none;"/>
            <g transform="matrix(1.30909,0,0,1.30909,-38.636,-13.9086)">
                <g id="Layer-1" serif:id="Layer 1">
                    <g>
                        <g transform="matrix(1,0,0,1,88.3828,58.3549)">
                            <path d="M0,13.856L0,-0L0.289,-0.289L3.175,-0.289L3.464,-0L3.464,13.856L3.175,14.145L0.289,14.145L0,13.856Z" style="fill-rule:nonzero;"/>
                        </g>
                        <g transform="matrix(1,0,0,1,88.3828,17.7887)">
                            <path d="M0,13.855L0,-0L0.289,-0.289L3.175,-0.289L3.464,-0L3.464,13.855L3.175,14.144L0.289,14.144L0,13.855Z" style="fill-rule:nonzero;"/>
                        </g>
                        <g transform="matrix(1,0,0,1,75.8353,55.0085)">
                            <path d="M0,7.214L-0.408,7.214L-2.449,5.172L-2.449,4.764L2.317,0L4.478,0.001L4.767,0.289L4.767,2.45L0,7.214Z" style="fill-rule:nonzero;"/>
                        </g>
                        <g transform="matrix(1,0,0,1,75.8333,34.9914)">
                            <path d="M0,-7.214L-0.408,-7.214L-2.449,-5.172L-2.449,-4.764L2.317,0L4.478,-0.001L4.767,-0.289L4.767,-2.45L0,-7.214Z" style="fill-rule:nonzero;"/>
                        </g>
                        <g transform="matrix(1,0,0,1,57.6384,46.7319)">
                            <path d="M0,-3.464L19.628,-3.464L19.917,-3.175L19.917,-0.289L19.628,0L0,0L-0.289,-0.289L-0.289,-3.175L0,-3.464Z" style="fill-rule:nonzero;"/>
                        </g>
                        <g transform="matrix(1,0,0,1,173.887,46.7319)">
                            <path d="M0,-3.464L18.475,-3.464L18.764,-3.175L18.764,-0.289L18.475,0L-1.154,0L-1.443,-0.289L-0.289,-3.175L0,-3.464Z" style="fill-rule:nonzero;"/>
                        </g>
                        <g transform="matrix(1,0,0,1,109.054,46.8107)">
                            <path d="M0,-3.467C0,-3.756 -0.289,-5.777 -2.6,-5.777C-4.91,-5.777 -5.199,-3.756 -5.199,-3.467L-4.91,-3.178L-0.289,-3.178L0,-3.467ZM4.333,-0.579L4.044,-0.29L-4.91,-0.29L-5.199,-0.001C-5.199,0.577 -4.621,2.31 -2.31,2.31C-1.444,2.31 -0.578,2.021 -0.289,1.443L0,1.154L3.466,1.154L3.755,1.443C3.466,3.176 2.023,5.776 -2.31,5.776C-7.22,5.776 -9.532,2.31 -9.532,-1.733C-9.532,-5.776 -7.221,-9.243 -2.6,-9.243C2.023,-9.243 4.333,-5.776 4.333,-1.733L4.333,-0.578L4.333,-0.579Z" style="fill-rule:nonzero;"/>
                        </g>
                        <g transform="matrix(1,0,0,1,121.474,39.0107)">
                            <path d="M0,8.954C0,9.532 0.289,9.821 0.867,9.821L3.466,9.821L3.755,10.11L3.755,12.998L3.466,13.287L0.867,13.287C-1.733,13.287 -4.043,12.131 -4.043,8.954L-4.043,2.599L-4.332,2.31L-6.354,2.31L-6.643,2.021L-6.643,-0.867L-6.354,-1.156L-4.332,-1.156L-4.043,-1.445L-4.043,-4.044L-3.754,-4.333L-0.288,-4.333L0.001,-4.044L0.001,-1.445L0.29,-1.156L3.467,-1.156L3.756,-0.867L3.756,2.021L3.467,2.31L0.29,2.31L0.001,2.599L0.001,8.954L0,8.954Z" style="fill-rule:nonzero;"/>
                        </g>
                        <g transform="matrix(1,0,0,1,132.161,32.0787)">
                            <path d="M0,20.219L-3.466,20.219L-3.755,19.93L-3.755,0.289L-3.466,0L0,0L0.289,0.289L0.289,19.93L0,20.219Z" style="fill-rule:nonzero;"/>
                        </g>
                        <g transform="matrix(1,0,0,1,139.959,32.0787)">
                            <path d="M0,20.219L-3.466,20.219L-3.755,19.93L-3.755,6.066L-3.466,5.777L0,5.777L0.289,6.066L0.289,19.93L0,20.219ZM0,3.467L-3.466,3.467L-3.755,3.178L-3.755,0.289L-3.466,0L0,0L0.289,0.289L0.289,3.178L0,3.467Z" style="fill-rule:nonzero;"/>
                        </g>
                        <g transform="matrix(1,0,0,1,153.534,52.0091)">
                            <path d="M0,-19.641L0,-16.753L-0.289,-16.464L-2.888,-16.464C-3.466,-16.464 -3.755,-16.175 -3.755,-15.597L-3.755,-14.441L-3.466,-14.152L-0.578,-14.152L-0.289,-13.863L-0.289,-10.975L-0.578,-10.686L-3.466,-10.686L-3.755,-10.397L-3.755,0.001L-4.044,0.289L-7.51,0.289L-7.799,0.001L-7.799,-10.397L-8.088,-10.686L-10.11,-10.686L-10.399,-10.975L-10.399,-13.863L-10.11,-14.152L-8.088,-14.152L-7.799,-14.441L-7.799,-15.597C-7.799,-18.774 -5.489,-19.93 -2.889,-19.93L-0.29,-19.93L-0.001,-19.641L0,-19.641Z" style="fill-rule:nonzero;"/>
                        </g>
                        <g transform="matrix(1,0,0,1,164.221,42.4756)">
                            <path d="M0,10.111C-1.156,12.999 -2.31,14.732 -6.355,14.732L-7.799,14.732L-8.088,14.443L-8.088,11.555L-7.799,11.266L-6.355,11.266C-4.911,11.266 -4.622,10.977 -4.333,10.11L-4.333,9.821L-8.954,-1.443L-8.954,-4.332L-8.665,-4.621L-6.066,-4.621L-5.777,-4.332L-2.31,5.489L-2.022,5.489L1.445,-4.332L1.734,-4.621L4.333,-4.621L4.622,-4.332L4.622,-1.443L0.001,10.11L0,10.111Z" style="fill-rule:nonzero;"/>
                        </g>
                        <g transform="matrix(1,0,0,1,93.1442,37.6307)">
                            <path d="M0,14.667L-0.289,14.378L-0.287,6.009C-0.287,4.565 -0.855,3.446 -2.597,3.41C-3.493,3.386 -4.519,3.407 -5.614,3.454L-5.778,3.622L-5.776,14.378L-6.065,14.667L-9.53,14.667L-9.819,14.378L-9.819,0.359L-9.53,0.071L-1.732,0C2.175,0 3.756,2.684 3.756,5.714L3.756,14.378L3.467,14.667L0,14.667Z" style="fill-rule:nonzero;"/>
                        </g>
                    </g>
                </g>
            </g>
        </g>
    </g>
</svg>
