<?xml version="1.0" encoding="UTF-8" standalone="no"?>
<!DOCTYPE svg PUBLIC "-//W3C//DTD SVG 1.1//EN" "http://www.w3.org/Graphics/SVG/1.1/DTD/svg11.dtd">
<svg width="100%" height="100%" viewBox="0 0 1042 375" version="1.1" xmlns="http://www.w3.org/2000/svg" xmlns:xlink="http://www.w3.org/1999/xlink" xml:space="preserve" xmlns:serif="http://www.serif.com/" style="fill-rule:evenodd;clip-rule:evenodd;stroke-linejoin:round;stroke-miterlimit:2;">
    <g transform="matrix(1,0,0,1,-1171.88,-1265.62)">
        <g id="Page-19" serif:id="Page 19" transform="matrix(4.16667,0,0,4.16667,1171.88,1265.62)">
            <rect x="0" y="0" width="250" height="90" style="fill:none;"/>
            <g id="Layer-1" serif:id="Layer 1">
            </g>
            <g transform="matrix(1.79379,0,0,1.79379,33.0097,21.3365)">
                <path d="M27.629,14.573L25.565,12.513C25.401,12.35 25.309,12.128 25.309,11.897L25.309,9.376C25.309,7.046 25.067,6.201 24.61,5.35C24.163,4.508 23.473,3.819 22.63,3.374C21.777,2.919 20.93,2.676 18.597,2.676L15.258,2.676C15.163,2.675 15.085,2.596 15.085,2.501C15.085,2.455 15.103,2.412 15.135,2.379L17.198,0.319C17.363,0.155 17.586,0.063 17.818,0.063L18.978,0.063C22.09,0.063 23.218,0.386 24.356,0.993C25.48,1.587 26.4,2.505 26.996,3.628C27.604,4.763 27.928,5.89 27.928,8.996L27.928,14.45C27.928,14.45 27.928,14.45 27.928,14.451C27.928,14.547 27.849,14.626 27.753,14.626C27.706,14.626 27.661,14.607 27.628,14.573L27.629,14.573ZM13.389,27.64L15.453,25.58C15.617,25.416 15.841,25.324 16.073,25.324L18.597,25.324C20.931,25.324 21.777,25.081 22.631,24.626C23.474,24.181 24.163,23.492 24.61,22.65C25.066,21.799 25.31,20.954 25.31,18.624L25.31,15.292C25.31,15.292 25.31,15.291 25.31,15.291C25.31,15.196 25.389,15.117 25.484,15.117C25.531,15.117 25.575,15.136 25.608,15.169L27.672,17.229C27.835,17.392 27.927,17.614 27.927,17.845L27.927,19.004C27.927,22.11 27.604,23.237 26.995,24.372C26.399,25.495 25.479,26.413 24.355,27.006C23.218,27.614 22.089,27.937 18.977,27.937L13.513,27.937C13.513,27.937 13.512,27.937 13.512,27.937C13.417,27.937 13.338,27.858 13.338,27.763C13.338,27.717 13.356,27.673 13.389,27.64ZM2.363,15.487L0.299,13.427C0.266,13.394 0.222,13.375 0.175,13.375C0.079,13.375 0,13.454 0,13.55L0,19.004C0,22.11 0.324,23.236 0.933,24.372C1.529,25.495 2.448,26.413 3.572,27.006C4.71,27.614 5.838,27.937 8.95,27.937L10.11,27.937C10.342,27.937 10.565,27.845 10.73,27.681L12.793,25.621C12.826,25.588 12.844,25.544 12.844,25.498C12.844,25.403 12.765,25.324 12.67,25.324C12.67,25.324 12.669,25.324 12.669,25.324L9.331,25.324C6.997,25.324 6.151,25.081 5.297,24.626C4.454,24.181 3.764,23.492 3.317,22.65C2.861,21.798 2.618,20.954 2.618,18.624L2.618,16.102C2.618,15.871 2.526,15.65 2.363,15.487ZM14.539,0.36L12.475,2.42C12.311,2.584 12.087,2.676 11.855,2.676L9.332,2.676C6.998,2.676 6.152,2.919 5.298,3.374C4.455,3.819 3.765,4.508 3.318,5.35C2.862,6.201 2.619,7.046 2.619,9.376L2.619,12.708C2.619,12.804 2.54,12.883 2.444,12.883C2.397,12.883 2.353,12.864 2.32,12.831L0.256,10.77C0.093,10.607 0,10.386 0,10.155L0,8.996C0,5.89 0.324,4.763 0.933,3.628C1.529,2.505 2.448,1.587 3.572,0.994C4.71,0.386 5.838,0.063 8.95,0.063L14.415,0.063C14.51,0.064 14.589,0.143 14.589,0.238C14.589,0.284 14.571,0.327 14.539,0.36ZM20.454,7.548L23.268,10.233C23.301,10.264 23.344,10.282 23.389,10.282C23.485,10.282 23.564,10.203 23.564,10.107L23.564,7.902C23.562,5.989 21.986,4.416 20.073,4.418L13.453,4.418C13.221,4.418 12.999,4.51 12.835,4.673L10.769,6.733C10.736,6.766 10.717,6.81 10.717,6.857C10.717,6.952 10.796,7.031 10.891,7.031C10.892,7.031 10.892,7.031 10.893,7.031L19.2,7.031C19.418,7.031 19.626,7.071 19.817,7.143C20.05,7.227 20.267,7.363 20.454,7.548ZM17.737,23.29L20.427,20.48C20.614,20.294 20.749,20.077 20.834,19.845C20.906,19.654 20.946,19.446 20.946,19.229L20.946,10.938C20.946,10.842 21.025,10.763 21.121,10.763C21.168,10.763 21.212,10.782 21.245,10.815L23.309,12.877C23.472,13.04 23.564,13.261 23.564,13.492L23.564,20.1C23.562,22.013 21.987,23.586 20.074,23.585L17.864,23.585C17.768,23.585 17.689,23.506 17.689,23.41C17.689,23.365 17.706,23.322 17.737,23.29ZM7.474,20.451L4.66,17.767C4.627,17.736 4.584,17.718 4.539,17.718C4.444,17.718 4.365,17.797 4.364,17.892L4.364,20.098C4.366,22.011 5.942,23.584 7.855,23.582L14.475,23.582C14.707,23.582 14.929,23.49 15.093,23.326L17.159,21.266C17.192,21.233 17.21,21.189 17.21,21.143C17.21,21.048 17.131,20.969 17.036,20.969C17.036,20.969 17.035,20.969 17.035,20.969L8.728,20.969C8.51,20.969 8.302,20.929 8.11,20.857C7.871,20.77 7.654,20.631 7.474,20.451ZM10.191,4.712L7.501,7.522C7.321,7.701 7.182,7.918 7.095,8.157C7.022,8.349 6.982,8.557 6.982,8.773L6.982,17.065C6.982,17.065 6.982,17.066 6.982,17.066C6.982,17.161 6.903,17.24 6.808,17.24C6.761,17.24 6.716,17.221 6.683,17.187L4.62,15.127C4.457,14.964 4.365,14.743 4.365,14.512L4.365,7.902C4.367,5.989 5.943,4.416 7.856,4.418L10.066,4.418C10.161,4.419 10.239,4.498 10.239,4.593C10.239,4.637 10.222,4.68 10.192,4.712L10.191,4.712ZM36.622,8.54L35.946,8.54C35.384,8.54 34.928,8.994 34.928,9.554L34.928,23.874C34.928,24.435 35.384,24.889 35.946,24.889L36.571,24.889C37.134,24.889 37.59,24.435 37.59,23.875L37.59,18.28C37.59,18.243 37.62,18.214 37.656,18.214C37.79,18.398 37.96,18.587 38.166,18.779C38.374,18.972 38.626,19.153 38.921,19.322C39.217,19.492 39.557,19.63 39.941,19.738C40.326,19.845 40.77,19.899 41.273,19.899C42.699,19.915 44.061,19.297 44.989,18.214C45.452,17.669 45.809,17.042 46.042,16.366C46.294,15.658 46.419,14.896 46.419,14.08C46.426,13.304 46.306,12.532 46.065,11.794C45.845,11.114 45.49,10.486 45.022,9.946C44.561,9.421 43.994,9 43.358,8.711C42.708,8.411 41.975,8.261 41.162,8.261C40.407,8.261 39.705,8.414 39.054,8.722C38.404,9.03 37.886,9.522 37.501,10.2C37.477,10.2 37.457,10.18 37.457,10.156L37.457,9.37C37.456,8.914 37.08,8.539 36.624,8.539C36.623,8.539 36.623,8.539 36.622,8.539L36.622,8.54ZM43.547,12.835C43.687,13.235 43.757,13.651 43.757,14.082C43.757,14.513 43.687,14.929 43.547,15.329C43.276,16.122 42.696,16.772 41.939,17.13C41.554,17.315 41.117,17.407 40.629,17.407C39.752,17.422 38.911,17.05 38.333,16.391C38.058,16.081 37.847,15.72 37.712,15.329C37.572,14.929 37.502,14.513 37.502,14.082C37.502,13.651 37.572,13.235 37.712,12.835C37.983,12.042 38.563,11.392 39.32,11.034C39.705,10.849 40.141,10.757 40.63,10.757C41.507,10.742 42.347,11.114 42.925,11.773C43.199,12.081 43.406,12.435 43.547,12.835ZM51.019,8.54L50.256,8.54C49.693,8.54 49.237,8.994 49.237,9.554L49.237,18.61C49.237,19.17 49.693,19.624 50.256,19.624L50.881,19.624C51.443,19.624 51.899,19.17 51.899,18.61L51.899,13.69C51.899,13.535 51.932,13.304 51.999,12.996C52.066,12.689 52.199,12.381 52.399,12.073C52.599,11.765 52.886,11.492 53.264,11.253C53.641,11.014 54.14,10.895 54.761,10.895C54.968,10.895 55.179,10.915 55.393,10.953C55.426,10.959 55.459,10.962 55.492,10.962C55.796,10.962 56.046,10.712 56.047,10.408L56.047,8.888C56.048,8.607 55.847,8.362 55.571,8.308C55.414,8.277 55.254,8.262 55.094,8.263C54.384,8.263 53.755,8.44 53.208,8.793C52.661,9.148 52.239,9.648 51.944,10.295C51.944,10.295 51.943,10.295 51.943,10.295C51.919,10.295 51.899,10.275 51.899,10.251C51.899,10.251 51.899,10.25 51.899,10.25L51.899,9.417C51.897,8.935 51.501,8.54 51.019,8.54ZM59.888,8.54L59.263,8.54C58.7,8.54 58.244,8.994 58.244,9.554L58.244,18.61C58.244,19.17 58.7,19.624 59.263,19.624L59.888,19.624C60.45,19.624 60.906,19.17 60.906,18.61L60.906,9.553C60.906,8.993 60.45,8.539 59.888,8.539L59.888,8.54ZM58.344,3.61C58.026,3.94 57.867,4.329 57.867,4.775C57.867,5.222 58.026,5.611 58.344,5.942C58.662,6.272 59.065,6.438 59.554,6.438C60.041,6.438 60.452,6.28 60.784,5.965C61.117,5.649 61.284,5.253 61.284,4.775C61.295,4.326 61.113,3.892 60.784,3.586C60.452,3.271 60.041,3.113 59.554,3.113C59.065,3.113 58.662,3.278 58.344,3.609L58.344,3.61ZM67.894,10.48C68.316,10.48 68.797,10.677 69.337,11.073C69.733,11.363 70.28,11.33 70.638,10.994L70.97,10.684C71.175,10.493 71.291,10.225 71.291,9.945C71.291,9.637 71.151,9.346 70.911,9.154C70.601,8.906 70.321,8.736 70.069,8.644C69.394,8.394 68.681,8.265 67.961,8.263C67.429,8.263 66.904,8.332 66.386,8.47C65.891,8.598 65.425,8.817 65.011,9.117C64.611,9.409 64.29,9.783 64.046,10.237C63.801,10.691 63.68,11.227 63.68,11.842C63.68,12.55 63.82,13.104 64.101,13.505C64.382,13.905 64.737,14.217 65.166,14.44C65.603,14.666 66.069,14.829 66.552,14.925C67.048,15.025 67.51,15.133 67.939,15.248C68.368,15.364 68.723,15.514 69.004,15.698C69.284,15.883 69.425,16.168 69.425,16.553C69.429,16.754 69.371,16.952 69.259,17.119C69.149,17.28 69.004,17.415 68.826,17.523C68.649,17.631 68.456,17.708 68.25,17.753C68.043,17.8 67.843,17.823 67.65,17.823C67.089,17.823 66.612,17.696 66.22,17.442C66.072,17.343 65.932,17.233 65.8,17.114C65.401,16.765 64.794,16.781 64.414,17.151L64.138,17.421C63.943,17.611 63.832,17.873 63.832,18.146C63.832,18.462 63.98,18.76 64.231,18.951C64.611,19.241 64.938,19.435 65.211,19.531C65.905,19.778 66.667,19.901 67.495,19.901C68.043,19.901 68.59,19.84 69.137,19.717C69.66,19.604 70.159,19.401 70.612,19.117C71.048,18.84 71.413,18.464 71.677,18.019C71.951,17.565 72.087,17.007 72.087,16.345C72.087,15.621 71.947,15.052 71.667,14.636C71.395,14.229 71.029,13.892 70.601,13.655C70.166,13.414 69.7,13.235 69.215,13.124C68.752,13.016 68.289,12.905 67.828,12.789C67.458,12.703 67.1,12.571 66.763,12.396C66.483,12.242 66.342,11.996 66.342,11.657C66.342,11.242 66.512,10.941 66.852,10.757C67.171,10.578 67.53,10.483 67.895,10.48L67.894,10.48ZM75.883,8.54L75.391,8.54C74.829,8.54 74.373,8.994 74.373,9.554L74.373,18.61C74.373,19.17 74.829,19.624 75.391,19.624L76.016,19.624C76.579,19.624 77.035,19.17 77.035,18.61L77.035,13.574C77.035,13.204 77.079,12.85 77.168,12.512C77.251,12.186 77.398,11.879 77.601,11.611C77.801,11.349 78.051,11.141 78.355,10.988C78.658,10.833 79.031,10.757 79.475,10.757C80.126,10.757 80.592,10.961 80.873,11.368C81.154,11.776 81.294,12.327 81.294,13.02L81.294,18.61C81.294,19.17 81.751,19.624 82.314,19.624L82.938,19.624C83.501,19.624 83.957,19.17 83.957,18.61L83.957,13.62C83.957,13.266 83.997,12.916 84.079,12.57C84.153,12.24 84.288,11.926 84.478,11.646C84.663,11.376 84.9,11.161 85.188,10.999C85.476,10.837 85.828,10.757 86.242,10.757C86.641,10.757 86.966,10.826 87.218,10.964C87.464,11.097 87.67,11.292 87.817,11.53C87.965,11.769 88.068,12.046 88.127,12.362C88.187,12.677 88.217,13.004 88.217,13.343L88.217,18.61C88.217,19.17 88.672,19.624 89.235,19.624L89.86,19.624C90.422,19.624 90.878,19.17 90.878,18.61L90.878,13.02C90.878,12.358 90.812,11.738 90.678,11.16C90.56,10.618 90.338,10.105 90.024,9.648C89.719,9.216 89.311,8.866 88.837,8.632C88.349,8.386 87.75,8.262 87.04,8.262C86.242,8.262 85.554,8.428 84.977,8.759C84.4,9.09 83.92,9.609 83.535,10.318C82.988,8.948 81.879,8.263 80.207,8.263C79.32,8.263 78.614,8.467 78.089,8.874C77.598,9.25 77.194,9.727 76.902,10.272L76.902,9.554C76.902,8.994 76.446,8.54 75.883,8.54ZM95.805,8.54L95.18,8.54C94.618,8.54 94.162,8.994 94.162,9.554L94.162,18.61C94.162,19.17 94.618,19.624 95.18,19.624L95.805,19.624C96.368,19.624 96.824,19.17 96.824,18.61L96.824,9.553C96.824,8.993 96.368,8.539 95.805,8.539L95.805,8.54ZM94.262,3.61C93.944,3.94 93.785,4.329 93.785,4.775C93.785,5.222 93.944,5.611 94.262,5.942C94.58,6.272 94.982,6.438 95.471,6.438C95.959,6.438 96.369,6.28 96.701,5.965C97.035,5.649 97.201,5.253 97.201,4.775C97.212,4.326 97.03,3.892 96.701,3.586C96.369,3.271 95.959,3.113 95.471,3.113C94.982,3.113 94.58,3.278 94.261,3.609L94.262,3.61ZM106.519,11.057C106.602,11.106 106.698,11.173 106.808,11.258C107.22,11.58 107.81,11.538 108.172,11.161L108.583,10.732C108.764,10.544 108.866,10.292 108.866,10.03C108.866,9.71 108.714,9.408 108.456,9.217C108.1,8.953 107.79,8.769 107.528,8.667C106.876,8.404 106.179,8.267 105.476,8.263C104.677,8.263 103.923,8.401 103.213,8.678C102.503,8.955 101.89,9.348 101.372,9.856C100.844,10.38 100.425,11.004 100.141,11.692C99.838,12.408 99.686,13.204 99.686,14.082C99.686,14.96 99.837,15.756 100.141,16.472C100.425,17.16 100.843,17.784 101.372,18.308C101.89,18.816 102.503,19.208 103.213,19.486C103.923,19.763 104.677,19.901 105.476,19.901C105.713,19.901 105.994,19.874 106.319,19.821C107.049,19.696 107.752,19.443 108.393,19.071C108.693,18.899 108.878,18.58 108.878,18.234C108.878,17.997 108.791,17.769 108.633,17.592L108.228,17.139C107.879,16.749 107.285,16.687 106.863,16.996C106.779,17.057 106.702,17.106 106.63,17.142C106.271,17.32 105.876,17.41 105.476,17.407C104.988,17.407 104.552,17.315 104.167,17.13C103.411,16.771 102.83,16.121 102.559,15.329C102.418,14.928 102.347,14.507 102.348,14.082C102.348,13.651 102.418,13.235 102.559,12.835C102.83,12.043 103.411,11.393 104.167,11.034C104.577,10.844 105.024,10.749 105.476,10.757C105.831,10.757 106.179,10.857 106.519,11.057Z"/>
            </g>
        </g>
    </g>
</svg>
