<?xml version="1.0" encoding="UTF-8" standalone="no"?>
<!DOCTYPE svg PUBLIC "-//W3C//DTD SVG 1.1//EN" "http://www.w3.org/Graphics/SVG/1.1/DTD/svg11.dtd">
<svg width="100%" height="100%" viewBox="0 0 250 90" version="1.1" xmlns="http://www.w3.org/2000/svg" xmlns:xlink="http://www.w3.org/1999/xlink" xml:space="preserve" xmlns:serif="http://www.serif.com/" style="fill-rule:evenodd;clip-rule:evenodd;stroke-linejoin:round;stroke-miterlimit:2;">
    <g transform="matrix(1.663478,0,0,1.663478,25,18.384347)">
        <path d="M16,31.19C24.39,31.19 31.19,24.39 31.19,16C31.19,7.61 24.39,0.81 16,0.81C7.61,0.81 0.81,7.61 0.81,16C0.81,24.39 7.61,31.19 16,31.19Z" style="fill:white;fill-rule:nonzero;"/>
        <path d="M16,0C7.16,0 0,7.16 0,16C0,24.84 7.16,32 16,32C24.84,32 32,24.84 32,16C32,7.16 24.84,0 16,0ZM16,1.63C23.94,1.63 30.37,8.06 30.37,16C30.37,23.94 23.94,30.37 16,30.37C8.06,30.37 1.63,23.94 1.63,16C1.63,8.06 8.06,1.63 16,1.63Z" style="fill-rule:nonzero;"/>
        <path d="M16.18,4.61C22.47,4.61 27.57,9.71 27.57,16C27.57,22.29 22.47,27.39 16.18,27.39C9.89,27.39 4.79,22.29 4.79,16C4.79,14.46 5.09,13 5.65,11.66C6.46,12.76 7.76,13.47 9.22,13.47C11.67,13.47 13.65,11.49 13.65,9.04C13.65,7.57 12.94,6.27 11.84,5.47C13.18,4.92 14.64,4.61 16.18,4.61Z" style="fill:url(#_Linear1);"/>
        <path d="M47.41,8.91L45.43,8.91L45.43,22L47.41,22L47.41,8.91ZM52.04,16.17C52.04,14.6 53,13.71 54.33,13.71C55.66,13.71 56.41,14.56 56.41,15.99L56.41,22L58.32,22L58.32,15.76C58.32,13.33 56.98,12.06 54.98,12.06C53.5,12.06 52.54,12.74 52.08,13.79L51.96,13.79L51.96,12.19L50.13,12.19L50.13,22.01L52.04,22.01L52.04,16.17ZM68.24,14.58C67.84,13.05 66.65,12.06 64.53,12.06C62.41,12.06 60.74,13.23 60.74,14.97C60.74,16.36 61.58,17.29 63.42,17.7L65.08,18.06C66.03,18.27 66.47,18.69 66.47,19.31C66.47,20.07 65.66,20.67 64.41,20.67C63.27,20.67 62.53,20.18 62.3,19.21L60.45,19.49C60.77,21.23 62.21,22.21 64.42,22.21C66.79,22.21 68.43,20.95 68.43,19.17C68.43,17.78 67.55,16.93 65.75,16.51L64.19,16.15C63.11,15.89 62.64,15.53 62.65,14.87C62.65,14.12 63.46,13.58 64.55,13.58C65.74,13.58 66.29,14.24 66.51,14.9L68.24,14.59L68.24,14.58ZM74.67,22.2C77.44,22.2 79.25,20.17 79.25,17.14C79.25,14.11 77.44,12.06 74.67,12.06C71.9,12.06 70.09,14.09 70.09,17.14C70.09,20.19 71.9,22.2 74.67,22.2ZM74.67,20.6C72.86,20.6 72.02,19.02 72.02,17.14C72.02,15.26 72.86,13.66 74.67,13.66C76.48,13.66 77.31,15.26 77.31,17.14C77.31,19.02 76.47,20.6 74.67,20.6ZM81.37,22.01L83.28,22.01L83.28,15.96C83.28,14.64 84.21,13.72 85.29,13.72C86.37,13.72 87.09,14.42 87.09,15.49L87.09,22.02L88.99,22.02L88.99,15.76C88.99,14.58 89.71,13.72 90.96,13.72C91.97,13.72 92.8,14.28 92.8,15.61L92.8,22.01L94.71,22.01L94.71,15.43C94.71,13.19 93.46,12.07 91.68,12.07C90.27,12.07 89.21,12.75 88.73,13.8L88.63,13.8C88.2,12.73 87.3,12.07 85.99,12.07C84.68,12.07 83.73,12.72 83.32,13.8L83.2,13.8L83.2,12.2L81.37,12.2L81.37,22.02L81.37,22.01ZM99.19,16.18C99.19,14.61 100.15,13.72 101.48,13.72C102.81,13.72 103.56,14.57 103.56,16L103.56,22.01L105.47,22.01L105.47,15.77C105.47,13.34 104.13,12.07 102.13,12.07C100.65,12.07 99.69,12.75 99.23,13.8L99.11,13.8L99.11,12.2L97.28,12.2L97.28,22.02L99.19,22.02L99.19,16.18ZM108.04,22.01L109.95,22.01L109.95,12.19L108.04,12.19L108.04,22.01ZM109,10.68C109.66,10.68 110.21,10.17 110.21,9.54C110.21,8.91 109.66,8.4 109,8.4C108.34,8.4 107.79,8.92 107.79,9.54C107.79,10.16 108.33,10.68 109,10.68ZM115.38,22.23C117,22.23 117.92,21.41 118.28,20.67L118.36,20.67L118.36,22.01L120.23,22.01L120.23,15.49C120.23,12.63 117.98,12.06 116.42,12.06C114.64,12.06 113.01,12.78 112.37,14.57L114.17,14.98C114.45,14.28 115.17,13.61 116.45,13.61C117.73,13.61 118.32,14.26 118.32,15.37L118.32,15.41C118.32,16.11 117.6,16.09 115.84,16.3C113.98,16.52 112.08,17 112.08,19.23C112.08,21.16 113.53,22.22 115.4,22.22L115.38,22.23ZM115.8,20.7C114.72,20.7 113.94,20.21 113.94,19.27C113.94,18.25 114.85,17.88 115.95,17.74C116.57,17.66 118.04,17.49 118.32,17.22L118.32,18.49C118.32,19.65 117.39,20.71 115.8,20.71L115.8,20.7Z" style="fill-rule:nonzero;"/>
    </g>
    <defs>
        <linearGradient id="_Linear1" x1="0" y1="0" x2="1" y2="0" gradientUnits="userSpaceOnUse" gradientTransform="matrix(14.86921,14.86921,-14.86921,14.86921,8.69896,9.071153)"><stop offset="0" style="stop-color:black;stop-opacity:1"/><stop offset="1" style="stop-color:rgb(77,77,77);stop-opacity:1"/></linearGradient>
    </defs>
</svg>
