<?xml version="1.0" encoding="UTF-8" standalone="no"?>
<!DOCTYPE svg PUBLIC "-//W3C//DTD SVG 1.1//EN" "http://www.w3.org/Graphics/SVG/1.1/DTD/svg11.dtd">
<svg width="100%" height="100%" viewBox="0 0 250 90" version="1.1" xmlns="http://www.w3.org/2000/svg" xmlns:xlink="http://www.w3.org/1999/xlink" xml:space="preserve" xmlns:serif="http://www.serif.com/" style="fill-rule:evenodd;clip-rule:evenodd;stroke-linejoin:round;stroke-miterlimit:2;">
    <g transform="matrix(1.80791,0,0,1.80791,23.644068,16.073446)">
        <path d="M4.35,25C4.35,17.046 10.796,10.6 18.75,10.6C26.704,10.6 33.15,17.046 33.15,25L36.75,25C36.75,15.059 28.691,7 18.75,7C8.809,7 0.75,15.059 0.75,25L4.35,25Z" style="fill:url(#_Linear1);fill-rule:nonzero;"/>
    </g>
    <g transform="matrix(1.80791,0,0,1.80791,23.644068,16.073446)">
        <path d="M27.75,25C27.75,20.063 23.687,16 18.75,16C13.813,16 9.75,20.063 9.75,25L6.15,25C6.15,18.042 11.792,12.4 18.75,12.4C25.708,12.4 31.35,18.042 31.35,25L27.75,25Z" style="fill:url(#_Linear2);fill-rule:nonzero;"/>
    </g>
    <g transform="matrix(1.80791,0,0,1.80791,23.644068,16.073446)">
        <path d="M15.15,25C15.15,23.025 16.775,21.4 18.75,21.4C20.725,21.4 22.35,23.025 22.35,25L25.95,25C25.95,21.05 22.7,17.8 18.75,17.8C14.8,17.8 11.55,21.05 11.55,25L15.15,25Z" style="fill:url(#_Linear3);fill-rule:nonzero;"/>
    </g>
    <g transform="matrix(1.80791,0,0,1.80791,23.644068,16.073446)">
        <path d="M51.925,10.428C51.135,10.013 50.139,9.807 48.938,9.807L43.5,9.807L43.5,24.75L46.23,24.75L46.23,19.575L48.889,19.575C50.103,19.575 51.111,19.37 51.911,18.963C52.712,18.556 53.308,17.984 53.705,17.248C54.099,16.514 54.297,15.668 54.297,14.711C54.297,13.755 54.099,12.891 53.705,12.154C53.31,11.42 52.718,10.844 51.926,10.43L51.924,10.428L51.925,10.428ZM51.317,16.084C51.123,16.479 50.805,16.799 50.411,16.996C50,17.21 49.458,17.318 48.787,17.318L46.227,17.318L46.227,12.133L48.777,12.133C49.447,12.133 49.989,12.239 50.404,12.449C50.819,12.659 51.122,12.959 51.315,13.347C51.507,13.735 51.605,14.189 51.605,14.711C51.605,15.234 51.509,15.691 51.315,16.086L51.317,16.084ZM58.127,9.805L55.527,9.805L55.527,24.748L58.127,24.748L58.127,9.805ZM67.482,14.935C67.071,14.602 66.599,14.352 66.093,14.198C65.548,14.024 64.935,13.938 64.251,13.938C63.307,13.938 62.503,14.094 61.836,14.408C61.169,14.723 60.65,15.145 60.278,15.677C59.909,16.2 59.695,16.817 59.661,17.457L62.161,17.457C62.184,17.172 62.289,16.9 62.465,16.675C62.64,16.447 62.879,16.271 63.178,16.148C63.511,16.019 63.866,15.956 64.223,15.963C64.621,15.963 64.95,16.027 65.228,16.154C65.507,16.281 65.721,16.455 65.871,16.674C66.021,16.894 66.095,17.155 66.095,17.456L66.095,17.526C66.095,17.766 66.015,17.945 65.851,18.058C65.687,18.172 65.416,18.255 65.035,18.308C64.519,18.378 64.003,18.442 63.486,18.499C62.941,18.552 62.422,18.643 61.928,18.77C61.464,18.885 61.019,19.067 60.608,19.311C60.223,19.546 59.918,19.861 59.693,20.254C59.467,20.648 59.355,21.148 59.355,21.748C59.355,22.45 59.513,23.037 59.828,23.508C60.145,23.981 60.596,24.35 61.123,24.567C61.673,24.801 62.294,24.917 62.99,24.917C63.554,24.917 64.033,24.845 64.43,24.701C64.824,24.557 65.157,24.358 65.426,24.105C65.695,23.851 65.913,23.567 66.078,23.253L66.127,23.253L66.127,24.746L68.676,24.746L68.676,17.466C68.681,16.977 68.576,16.494 68.367,16.052C68.157,15.62 67.857,15.238 67.486,14.933L67.482,14.935ZM66.114,20.837C66.114,21.247 66.018,21.613 65.824,21.941C65.624,22.275 65.335,22.546 64.988,22.723C64.623,22.918 64.178,23.014 63.653,23.014C63.129,23.014 62.687,22.899 62.37,22.668C62.05,22.437 61.892,22.118 61.892,21.71C61.892,21.396 61.982,21.14 62.161,20.943C62.358,20.734 62.6,20.573 62.868,20.472C63.159,20.355 63.482,20.273 63.834,20.226C64.094,20.192 64.339,20.154 64.576,20.11C64.811,20.067 65.033,20.023 65.238,19.98C65.417,19.943 65.594,19.899 65.77,19.85C65.89,19.818 66.005,19.772 66.114,19.713L66.114,20.837ZM75.999,18.69L74.087,18.299C73.662,18.206 73.327,18.062 73.087,17.867C72.851,17.686 72.715,17.402 72.724,17.104C72.724,16.764 72.88,16.47 73.192,16.226C73.504,15.982 73.929,15.861 74.467,15.861C75.004,15.861 75.478,16.012 75.826,16.317C76.174,16.622 76.352,17.004 76.358,17.466L78.807,17.466C78.781,16.737 78.581,16.11 78.209,15.586C77.837,15.062 77.326,14.653 76.675,14.363C76.025,14.072 75.268,13.928 74.405,13.928C73.542,13.928 72.779,14.064 72.135,14.338C71.49,14.613 70.991,14.996 70.64,15.488C70.288,15.98 70.112,16.553 70.112,17.208C70.112,18.011 70.373,18.67 70.899,19.185C71.424,19.7 72.187,20.065 73.19,20.277L74.993,20.638C75.439,20.726 75.786,20.866 76.038,21.061C76.279,21.234 76.42,21.515 76.416,21.812C76.416,22.174 76.246,22.471 75.909,22.706C75.57,22.94 75.102,23.056 74.504,23.056C73.907,23.056 73.41,22.916 73.055,22.634C72.7,22.354 72.495,21.962 72.442,21.46L69.873,21.46C69.933,22.223 70.168,22.867 70.58,23.39C70.991,23.915 71.538,24.315 72.222,24.59C72.907,24.864 73.683,25 74.553,25C75.423,25 76.207,24.862 76.888,24.584C77.568,24.307 78.098,23.912 78.482,23.4C78.863,22.89 79.055,22.29 79.055,21.6C79.055,20.824 78.807,20.2 78.312,19.724C77.818,19.249 77.046,18.904 75.997,18.691L75.999,18.691L75.999,18.69ZM94.116,14.375C93.588,14.083 92.989,13.939 92.319,13.939C91.517,13.939 90.816,14.136 90.218,14.532C89.62,14.925 89.216,15.414 89.004,15.995L88.964,15.995C88.786,15.401 88.423,14.908 87.88,14.52C87.335,14.132 86.688,13.94 85.938,13.94C85.188,13.94 84.558,14.13 83.991,14.51C83.423,14.891 83.031,15.383 82.811,15.986L82.771,15.986L82.771,14.16L80.252,14.16L80.252,24.751L82.862,24.751L82.862,18.444C82.862,17.955 82.955,17.539 83.145,17.194C83.335,16.85 83.583,16.59 83.891,16.416C84.202,16.241 84.554,16.151 84.911,16.155C85.463,16.155 85.911,16.325 86.261,16.666C86.609,17.006 86.784,17.469 86.784,18.05L86.784,24.75L89.314,24.75L89.314,18.271C89.314,17.651 89.493,17.141 89.852,16.747C90.21,16.354 90.702,16.155 91.325,16.155C91.819,16.144 92.301,16.318 92.675,16.641C93.049,16.965 93.237,17.469 93.237,18.151L93.237,24.749L95.846,24.749L95.846,17.759C95.846,16.929 95.69,16.231 95.378,15.663C95.091,15.12 94.654,14.672 94.118,14.373L94.116,14.373L94.116,14.375ZM98.86,9.625C98.428,9.625 98.062,9.769 97.76,10.057C97.466,10.327 97.301,10.71 97.308,11.109C97.308,11.524 97.458,11.853 97.761,12.137C98.064,12.421 98.431,12.563 98.861,12.563C99.291,12.563 99.659,12.421 99.961,12.137C100.263,11.853 100.413,11.51 100.413,11.109C100.413,10.708 100.263,10.344 99.96,10.057C99.666,9.772 99.269,9.617 98.86,9.625ZM100.165,14.159L97.565,14.159L97.565,24.75L100.165,24.75L100.165,14.159ZM108.104,22.302C107.742,22.651 107.24,22.823 106.595,22.823C106.063,22.823 105.606,22.685 105.221,22.407C104.836,22.13 104.541,21.74 104.334,21.239C104.127,20.737 104.026,20.146 104.026,19.463C104.026,18.78 104.129,18.178 104.334,17.673C104.539,17.167 104.836,16.777 105.221,16.499C105.606,16.222 106.063,16.082 106.595,16.082C107.02,16.082 107.388,16.162 107.7,16.322C108.012,16.483 108.262,16.707 108.452,16.994C108.642,17.282 108.766,17.614 108.826,17.986L111.375,17.986C111.302,17.191 111.054,16.487 110.629,15.876C110.201,15.261 109.623,14.766 108.95,14.437C108.257,14.089 107.462,13.917 106.565,13.917C105.535,13.917 104.633,14.153 103.857,14.624C103.081,15.094 102.451,15.771 102.039,16.58C101.605,17.413 101.387,18.375 101.387,19.463C101.387,20.551 101.605,21.503 102.039,22.336C102.45,23.144 103.08,23.819 103.857,24.286C104.633,24.754 105.535,24.989 106.565,24.989C107.462,24.989 108.26,24.811 108.965,24.457C109.644,24.124 110.227,23.624 110.659,23.003C111.085,22.383 111.333,21.658 111.375,20.907L108.806,20.907C108.698,21.488 108.465,21.954 108.103,22.301L108.104,22.303L108.104,22.302Z" style="fill-rule:nonzero;"/>
    </g>
    <g transform="matrix(1.80791,0,0,1.80791,23.644068,16.073446)">
        <path d="M108.104,22.302C107.742,22.651 107.24,22.823 106.595,22.823C106.063,22.823 105.606,22.685 105.221,22.407C104.836,22.13 104.541,21.74 104.334,21.239C104.127,20.737 104.026,20.146 104.026,19.463C104.026,18.78 104.129,18.178 104.334,17.673C104.539,17.167 104.836,16.777 105.221,16.499C105.606,16.222 106.063,16.082 106.595,16.082C107.02,16.082 107.388,16.162 107.7,16.322C108.012,16.483 108.262,16.707 108.452,16.994C108.642,17.282 108.766,17.614 108.826,17.986L111.375,17.986C111.302,17.191 111.054,16.487 110.629,15.876C110.201,15.261 109.623,14.766 108.95,14.437C108.257,14.089 107.462,13.917 106.565,13.917C105.535,13.917 104.633,14.153 103.857,14.624C103.081,15.094 102.451,15.771 102.039,16.58C101.605,17.413 101.387,18.375 101.387,19.463C101.387,20.551 101.605,21.503 102.039,22.336C102.45,23.144 103.08,23.819 103.857,24.286C104.633,24.754 105.535,24.989 106.565,24.989C107.462,24.989 108.26,24.811 108.965,24.457C109.644,24.124 110.227,23.624 110.659,23.003C111.085,22.383 111.333,21.658 111.375,20.907L108.806,20.907C108.698,21.488 108.465,21.954 108.103,22.301L108.104,22.303L108.104,22.302Z" style="fill:rgb(0,3,12);fill-rule:nonzero;"/>
    </g>
    <g transform="matrix(1.80791,0,0,1.80791,23.644068,16.073446)">
        <path d="M108.104,22.302C107.742,22.651 107.24,22.823 106.595,22.823C106.063,22.823 105.606,22.685 105.221,22.407C104.836,22.13 104.541,21.74 104.334,21.239C104.127,20.737 104.026,20.146 104.026,19.463C104.026,18.78 104.129,18.178 104.334,17.673C104.539,17.167 104.836,16.777 105.221,16.499C105.606,16.222 106.063,16.082 106.595,16.082C107.02,16.082 107.388,16.162 107.7,16.322C108.012,16.483 108.262,16.707 108.452,16.994C108.642,17.282 108.766,17.614 108.826,17.986L111.375,17.986C111.302,17.191 111.054,16.487 110.629,15.876C110.201,15.261 109.623,14.766 108.95,14.437C108.257,14.089 107.462,13.917 106.565,13.917C105.535,13.917 104.633,14.153 103.857,14.624C103.081,15.094 102.451,15.771 102.039,16.58C101.605,17.413 101.387,18.375 101.387,19.463C101.387,20.551 101.605,21.503 102.039,22.336C102.45,23.144 103.08,23.819 103.857,24.286C104.633,24.754 105.535,24.989 106.565,24.989C107.462,24.989 108.26,24.811 108.965,24.457C109.644,24.124 110.227,23.624 110.659,23.003C111.085,22.383 111.333,21.658 111.375,20.907L108.806,20.907C108.698,21.488 108.465,21.954 108.103,22.301L108.104,22.303L108.104,22.302Z" style="fill:rgb(0,3,12);fill-rule:nonzero;"/>
    </g>
    <g transform="matrix(1.80791,0,0,1.80791,23.644068,16.073446)">
        <path d="M108.104,22.302C107.742,22.651 107.24,22.823 106.595,22.823C106.063,22.823 105.606,22.685 105.221,22.407C104.836,22.13 104.541,21.74 104.334,21.239C104.127,20.737 104.026,20.146 104.026,19.463C104.026,18.78 104.129,18.178 104.334,17.673C104.539,17.167 104.836,16.777 105.221,16.499C105.606,16.222 106.063,16.082 106.595,16.082C107.02,16.082 107.388,16.162 107.7,16.322C108.012,16.483 108.262,16.707 108.452,16.994C108.642,17.282 108.766,17.614 108.826,17.986L111.375,17.986C111.302,17.191 111.054,16.487 110.629,15.876C110.201,15.261 109.623,14.766 108.95,14.437C108.257,14.089 107.462,13.917 106.565,13.917C105.535,13.917 104.633,14.153 103.857,14.624C103.081,15.094 102.451,15.771 102.039,16.58C101.605,17.413 101.387,18.375 101.387,19.463C101.387,20.551 101.605,21.503 102.039,22.336C102.45,23.144 103.08,23.819 103.857,24.286C104.633,24.754 105.535,24.989 106.565,24.989C107.462,24.989 108.26,24.811 108.965,24.457C109.644,24.124 110.227,23.624 110.659,23.003C111.085,22.383 111.333,21.658 111.375,20.907L108.806,20.907C108.698,21.488 108.465,21.954 108.103,22.301L108.104,22.303L108.104,22.302Z" style="fill:rgb(0,3,12);fill-rule:nonzero;"/>
    </g>
    <defs>
        <linearGradient id="_Linear1" x1="0" y1="0" x2="1" y2="0" gradientUnits="userSpaceOnUse" gradientTransform="matrix(27.409926,0,0,27.409926,4.460268,15.22377)"><stop offset="0" style="stop-color:black;stop-opacity:1"/><stop offset="1" style="stop-color:rgb(77,77,77);stop-opacity:1"/></linearGradient>
        <linearGradient id="_Linear2" x1="0" y1="0" x2="1" y2="0" gradientUnits="userSpaceOnUse" gradientTransform="matrix(19.186948,0,0,19.186948,8.747188,18.156639)"><stop offset="0" style="stop-color:black;stop-opacity:1"/><stop offset="1" style="stop-color:rgb(77,77,77);stop-opacity:1"/></linearGradient>
        <linearGradient id="_Linear3" x1="0" y1="0" x2="1" y2="0" gradientUnits="userSpaceOnUse" gradientTransform="matrix(10.96397,0,0,10.96397,13.034107,21.089508)"><stop offset="0" style="stop-color:black;stop-opacity:1"/><stop offset="1" style="stop-color:rgb(77,77,77);stop-opacity:1"/></linearGradient>
    </defs>
</svg>
